<svg xmlns="http://www.w3.org/2000/svg" viewBox="0 0 64 64" width="64" height="64">
  <!-- Pixel Art: Geflickte Ledertunika (Common) -->

  <!-- Shoulders -->
  <rect x="8" y="8" width="8" height="4" fill="#6b4423"/>
  <rect x="48" y="8" width="8" height="4" fill="#5b3413"/>

  <!-- Main body - patched leather -->
  <rect x="12" y="12" width="4" height="4" fill="#7b5433"/>
  <rect x="16" y="12" width="4" height="4" fill="#8b6443"/>
  <rect x="20" y="12" width="4" height="4" fill="#6b4423"/>
  <rect x="24" y="12" width="4" height="4" fill="#8b6443"/>
  <rect x="28" y="12" width="4" height="4" fill="#7b5433"/>
  <rect x="32" y="12" width="4" height="4" fill="#8b6443"/>
  <rect x="36" y="12" width="4" height="4" fill="#6b4423"/>
  <rect x="40" y="12" width="4" height="4" fill="#7b5433"/>
  <rect x="44" y="12" width="4" height="4" fill="#8b6443"/>
  <rect x="48" y="12" width="4" height="4" fill="#6b4423"/>

  <!-- Patches (different colored leather) -->
  <rect x="16" y="16" width="8" height="8" fill="#5a4a3a"/>
  <rect x="36" y="20" width="8" height="8" fill="#4a3a2a"/>

  <!-- Main torso -->
  <rect x="12" y="16" width="4" height="4" fill="#8b6443"/>
  <rect x="24" y="16" width="4" height="4" fill="#7b5433"/>
  <rect x="28" y="16" width="4" height="4" fill="#8b6443"/>
  <rect x="32" y="16" width="4" height="4" fill="#7b5433"/>
  <rect x="44" y="16" width="4" height="4" fill="#6b4423"/>
  <rect x="48" y="16" width="4" height="4" fill="#7b5433"/>

  <rect x="12" y="20" width="4" height="4" fill="#7b5433"/>
  <rect x="24" y="20" width="4" height="4" fill="#8b6443"/>
  <rect x="28" y="20" width="4" height="4" fill="#7b5433"/>
  <rect x="32" y="20" width="4" height="4" fill="#8b6443"/>
  <rect x="44" y="20" width="4" height="4" fill="#7b5433"/>
  <rect x="48" y="20" width="4" height="4" fill="#6b4423"/>

  <rect x="12" y="24" width="4" height="4" fill="#6b4423"/>
  <rect x="16" y="24" width="4" height="4" fill="#7b5433"/>
  <rect x="20" y="24" width="4" height="4" fill="#8b6443"/>
  <rect x="24" y="24" width="4" height="4" fill="#7b5433"/>
  <rect x="28" y="24" width="4" height="4" fill="#8b6443"/>
  <rect x="32" y="24" width="4" height="4" fill="#7b5433"/>
  <rect x="44" y="24" width="4" height="4" fill="#8b6443"/>
  <rect x="48" y="24" width="4" height="4" fill="#7b5433"/>

  <!-- Bottom of tunic -->
  <rect x="16" y="28" width="4" height="4" fill="#6b4423"/>
  <rect x="20" y="28" width="4" height="4" fill="#7b5433"/>
  <rect x="24" y="28" width="4" height="4" fill="#8b6443"/>
  <rect x="28" y="28" width="4" height="4" fill="#7b5433"/>
  <rect x="32" y="28" width="4" height="4" fill="#8b6443"/>
  <rect x="36" y="28" width="4" height="4" fill="#7b5433"/>
  <rect x="40" y="28" width="4" height="4" fill="#6b4423"/>
  <rect x="44" y="28" width="4" height="4" fill="#7b5433"/>

  <!-- Hem -->
  <rect x="16" y="32" width="32" height="4" fill="#5b3413"/>

  <!-- Lacing down center -->
  <rect x="28" y="16" width="4" height="4" fill="#3a2a1a"/>
  <rect x="28" y="24" width="4" height="4" fill="#3a2a1a"/>
  <rect x="28" y="32" width="4" height="4" fill="#3a2a1a"/>
</svg>
