<svg xmlns="http://www.w3.org/2000/svg" viewBox="0 0 64 64" width="64" height="64">
  <!-- Pixel Art: Zusammengebundene Lumpen (Common) -->

  <!-- Ragged shoulder area -->
  <rect x="12" y="8" width="4" height="4" fill="#7a6a5a"/>
  <rect x="16" y="8" width="4" height="4" fill="#5a4a3a"/>
  <rect x="20" y="8" width="4" height="4" fill="#8a7a6a"/>
  <rect x="40" y="8" width="4" height="4" fill="#6a5a4a"/>
  <rect x="44" y="8" width="4" height="4" fill="#8a7a6a"/>
  <rect x="48" y="8" width="4" height="4" fill="#5a4a3a"/>

  <!-- Various colored cloth patches -->
  <rect x="12" y="12" width="8" height="8" fill="#8b6b4b"/>
  <rect x="20" y="12" width="8" height="8" fill="#6b8b6b"/>
  <rect x="28" y="12" width="8" height="8" fill="#7b5b3b"/>
  <rect x="36" y="12" width="8" height="8" fill="#5b6b8b"/>
  <rect x="44" y="12" width="8" height="8" fill="#9b7b5b"/>

  <rect x="12" y="20" width="8" height="8" fill="#5b7b5b"/>
  <rect x="20" y="20" width="8" height="8" fill="#8b7b6b"/>
  <rect x="28" y="20" width="8" height="8" fill="#6b5b4b"/>
  <rect x="36" y="20" width="8" height="8" fill="#7b8b7b"/>
  <rect x="44" y="20" width="8" height="8" fill="#5b4b3b"/>

  <!-- Stitching lines between patches -->
  <rect x="20" y="12" width="4" height="16" fill="#3a3a3a"/>
  <rect x="28" y="12" width="4" height="16" fill="#3a3a3a"/>
  <rect x="36" y="12" width="4" height="16" fill="#3a3a3a"/>
  <rect x="44" y="12" width="4" height="16" fill="#3a3a3a"/>

  <rect x="12" y="20" width="40" height="4" fill="#3a3a3a"/>

  <!-- Frayed bottom -->
  <rect x="12" y="28" width="4" height="4" fill="#6a5a4a"/>
  <rect x="20" y="28" width="4" height="4" fill="#5a7a5a"/>
  <rect x="28" y="28" width="4" height="4" fill="#7a6a5a"/>
  <rect x="36" y="28" width="4" height="4" fill="#5a6a7a"/>
  <rect x="44" y="28" width="4" height="4" fill="#8a7a6a"/>

  <rect x="16" y="32" width="4" height="4" fill="#7a5a4a"/>
  <rect x="24" y="32" width="4" height="4" fill="#5a8a5a"/>
  <rect x="32" y="32" width="4" height="4" fill="#6a5a4a"/>
  <rect x="40" y="32" width="4" height="4" fill="#4a5a6a"/>
  <rect x="48" y="32" width="4" height="4" fill="#7a6a5a"/>
</svg>
