<svg xmlns="http://www.w3.org/2000/svg" viewBox="0 0 64 64" width="64" height="64">
  <!-- Pixel Art: Kartoffelsack-Weste (Common) -->

  <!-- Rough burlap texture -->
  <rect x="12" y="8" width="4" height="4" fill="#a08060"/>
  <rect x="16" y="8" width="4" height="4" fill="#907050"/>
  <rect x="20" y="8" width="4" height="4" fill="#a08060"/>
  <rect x="24" y="8" width="4" height="4" fill="#b09070"/>
  <rect x="28" y="8" width="4" height="4" fill="#907050"/>
  <rect x="32" y="8" width="4" height="4" fill="#a08060"/>
  <rect x="36" y="8" width="4" height="4" fill="#907050"/>
  <rect x="40" y="8" width="4" height="4" fill="#b09070"/>
  <rect x="44" y="8" width="4" height="4" fill="#a08060"/>
  <rect x="48" y="8" width="4" height="4" fill="#907050"/>

  <!-- Arm holes (rough cut) -->
  <rect x="8" y="12" width="4" height="4" fill="#806040"/>
  <rect x="52" y="12" width="4" height="4" fill="#806040"/>

  <!-- Body with weave pattern -->
  <rect x="12" y="12" width="4" height="4" fill="#b09070"/>
  <rect x="16" y="12" width="4" height="4" fill="#a08060"/>
  <rect x="20" y="12" width="4" height="4" fill="#907050"/>
  <rect x="24" y="12" width="4" height="4" fill="#a08060"/>
  <rect x="28" y="12" width="4" height="4" fill="#b09070"/>
  <rect x="32" y="12" width="4" height="4" fill="#a08060"/>
  <rect x="36" y="12" width="4" height="4" fill="#907050"/>
  <rect x="40" y="12" width="4" height="4" fill="#a08060"/>
  <rect x="44" y="12" width="4" height="4" fill="#b09070"/>
  <rect x="48" y="12" width="4" height="4" fill="#a08060"/>

  <rect x="12" y="16" width="4" height="4" fill="#907050"/>
  <rect x="16" y="16" width="4" height="4" fill="#b09070"/>
  <rect x="20" y="16" width="4" height="4" fill="#a08060"/>
  <rect x="24" y="16" width="4" height="4" fill="#907050"/>
  <rect x="28" y="16" width="4" height="4" fill="#a08060"/>
  <rect x="32" y="16" width="4" height="4" fill="#b09070"/>
  <rect x="36" y="16" width="4" height="4" fill="#a08060"/>
  <rect x="40" y="16" width="4" height="4" fill="#907050"/>
  <rect x="44" y="16" width="4" height="4" fill="#a08060"/>
  <rect x="48" y="16" width="4" height="4" fill="#907050"/>

  <rect x="12" y="20" width="4" height="4" fill="#a08060"/>
  <rect x="16" y="20" width="4" height="4" fill="#907050"/>
  <rect x="20" y="20" width="4" height="4" fill="#b09070"/>
  <rect x="24" y="20" width="4" height="4" fill="#a08060"/>
  <rect x="28" y="20" width="4" height="4" fill="#907050"/>
  <rect x="32" y="20" width="4" height="4" fill="#a08060"/>
  <rect x="36" y="20" width="4" height="4" fill="#b09070"/>
  <rect x="40" y="20" width="4" height="4" fill="#a08060"/>
  <rect x="44" y="20" width="4" height="4" fill="#907050"/>
  <rect x="48" y="20" width="4" height="4" fill="#a08060"/>

  <rect x="12" y="24" width="4" height="4" fill="#b09070"/>
  <rect x="16" y="24" width="4" height="4" fill="#a08060"/>
  <rect x="20" y="24" width="4" height="4" fill="#907050"/>
  <rect x="24" y="24" width="4" height="4" fill="#b09070"/>
  <rect x="28" y="24" width="4" height="4" fill="#a08060"/>
  <rect x="32" y="24" width="4" height="4" fill="#907050"/>
  <rect x="36" y="24" width="4" height="4" fill="#a08060"/>
  <rect x="40" y="24" width="4" height="4" fill="#b09070"/>
  <rect x="44" y="24" width="4" height="4" fill="#a08060"/>
  <rect x="48" y="24" width="4" height="4" fill="#907050"/>

  <!-- Rope belt -->
  <rect x="12" y="28" width="40" height="4" fill="#6a5a4a"/>

  <!-- Bottom frayed edge -->
  <rect x="16" y="32" width="4" height="4" fill="#907050"/>
  <rect x="24" y="32" width="4" height="4" fill="#a08060"/>
  <rect x="32" y="32" width="4" height="4" fill="#907050"/>
  <rect x="40" y="32" width="4" height="4" fill="#a08060"/>
</svg>
