<svg xmlns="http://www.w3.org/2000/svg" viewBox="0 0 64 64" width="64" height="64">
  <!-- Pixel Art: Lederschild (Uncommon/Green) -->
  <rect x="20" y="4" width="24" height="4" fill="#6a5040"/>
  <rect x="16" y="8" width="32" height="4" fill="#7a6050"/>
  <rect x="12" y="12" width="4" height="20" fill="#2d5a2d"/>
  <rect x="48" y="12" width="4" height="20" fill="#2d5a2d"/>
  <rect x="16" y="12" width="32" height="4" fill="#8a7060"/>
  <rect x="16" y="16" width="32" height="4" fill="#9a8070"/>
  <rect x="28" y="14" width="8" height="8" fill="#3d7a3d"/>
  <rect x="30" y="16" width="4" height="4" fill="#4d9a4d"/>
  <rect x="16" y="20" width="32" height="4" fill="#8a7060"/>
  <rect x="16" y="24" width="32" height="4" fill="#7a6050"/>
  <rect x="16" y="28" width="4" height="4" fill="#2d5a2d"/>
  <rect x="44" y="28" width="4" height="4" fill="#2d5a2d"/>
  <rect x="20" y="28" width="24" height="4" fill="#6a5040"/>
  <rect x="20" y="32" width="4" height="4" fill="#2d5a2d"/>
  <rect x="40" y="32" width="4" height="4" fill="#2d5a2d"/>
  <rect x="24" y="32" width="16" height="4" fill="#5a4030"/>
  <rect x="24" y="36" width="4" height="4" fill="#2d5a2d"/>
  <rect x="36" y="36" width="4" height="4" fill="#2d5a2d"/>
  <rect x="28" y="36" width="8" height="4" fill="#4a3020"/>
  <rect x="28" y="40" width="8" height="4" fill="#2d5a2d"/>
</svg>
