<svg xmlns="http://www.w3.org/2000/svg" viewBox="0 0 64 64" width="64" height="64">
  <!-- Pixel Art: Turmschild (Uncommon/Green) -->
  <rect x="16" y="4" width="32" height="4" fill="#5a5a5a"/>
  <rect x="16" y="8" width="32" height="4" fill="#6a6a6a"/>
  <rect x="28" y="8" width="8" height="4" fill="#2d5a2d"/>
  <rect x="16" y="12" width="32" height="4" fill="#7a7a7a"/>
  <rect x="28" y="12" width="8" height="4" fill="#3d7a3d"/>
  <rect x="16" y="16" width="32" height="4" fill="#8a8a8a"/>
  <rect x="28" y="16" width="8" height="4" fill="#4d9a4d"/>
  <rect x="16" y="20" width="32" height="4" fill="#7a7a7a"/>
  <rect x="28" y="20" width="8" height="4" fill="#3d7a3d"/>
  <rect x="16" y="24" width="32" height="4" fill="#6a6a6a"/>
  <rect x="28" y="24" width="8" height="4" fill="#2d5a2d"/>
  <rect x="16" y="28" width="32" height="4" fill="#5a5a5a"/>
  <rect x="20" y="32" width="24" height="4" fill="#4a4a4a"/>
  <rect x="24" y="36" width="16" height="4" fill="#3a3a3a"/>
  <rect x="28" y="40" width="8" height="4" fill="#3a3a3a"/>
</svg>
