<svg xmlns="http://www.w3.org/2000/svg" viewBox="0 0 64 64" width="64" height="64">
  <!-- Pixel Art: Stumpfes Kuechenmesser (Common) -->

  <!-- Blade - dull gray -->
  <rect x="30" y="8" width="4" height="4" fill="#808080"/>
  <rect x="30" y="12" width="4" height="4" fill="#909090"/>
  <rect x="30" y="16" width="4" height="4" fill="#808080"/>
  <rect x="30" y="20" width="4" height="4" fill="#909090"/>
  <rect x="30" y="24" width="4" height="4" fill="#808080"/>
  <rect x="30" y="28" width="4" height="4" fill="#909090"/>
  <rect x="30" y="32" width="4" height="4" fill="#808080"/>

  <!-- Blade edge left -->
  <rect x="26" y="8" width="4" height="4" fill="#a0a0a0"/>
  <rect x="26" y="12" width="4" height="4" fill="#b0b0b0"/>
  <rect x="26" y="16" width="4" height="4" fill="#a0a0a0"/>
  <rect x="26" y="20" width="4" height="4" fill="#b0b0b0"/>
  <rect x="26" y="24" width="4" height="4" fill="#a0a0a0"/>
  <rect x="26" y="28" width="4" height="4" fill="#b0b0b0"/>

  <!-- Blade shadow right -->
  <rect x="34" y="12" width="4" height="4" fill="#606060"/>
  <rect x="34" y="16" width="4" height="4" fill="#505050"/>
  <rect x="34" y="20" width="4" height="4" fill="#606060"/>
  <rect x="34" y="24" width="4" height="4" fill="#505050"/>
  <rect x="34" y="28" width="4" height="4" fill="#606060"/>

  <!-- Simple wooden handle -->
  <rect x="30" y="36" width="4" height="4" fill="#8b7355"/>
  <rect x="30" y="40" width="4" height="4" fill="#6b5335"/>
  <rect x="30" y="44" width="4" height="4" fill="#8b7355"/>
  <rect x="30" y="48" width="4" height="4" fill="#6b5335"/>
  <rect x="30" y="52" width="4" height="4" fill="#8b7355"/>

  <!-- Rivets -->
  <rect x="30" y="40" width="4" height="4" fill="#505050"/>
  <rect x="30" y="48" width="4" height="4" fill="#505050"/>
</svg>
