<svg xmlns="http://www.w3.org/2000/svg" viewBox="0 0 64 64" width="64" height="64">
  <!-- Pixel Art Style: Rusty Short Sword (Common) -->

  <!-- Blade - rusty gray with orange rust spots -->
  <rect x="30" y="8" width="4" height="4" fill="#6b6b6b"/>
  <rect x="30" y="12" width="4" height="4" fill="#7a7a7a"/>
  <rect x="30" y="16" width="4" height="4" fill="#6b6b6b"/>
  <rect x="30" y="20" width="4" height="4" fill="#8b4513"/><!-- rust -->
  <rect x="30" y="24" width="4" height="4" fill="#7a7a7a"/>
  <rect x="30" y="28" width="4" height="4" fill="#6b6b6b"/>
  <rect x="30" y="32" width="4" height="4" fill="#8b4513"/><!-- rust -->
  <rect x="30" y="36" width="4" height="4" fill="#7a7a7a"/>

  <!-- Blade edge highlight (left) -->
  <rect x="26" y="12" width="4" height="4" fill="#8a8a8a"/>
  <rect x="26" y="16" width="4" height="4" fill="#9a9a9a"/>
  <rect x="26" y="20" width="4" height="4" fill="#8a8a8a"/>
  <rect x="26" y="24" width="4" height="4" fill="#9a9a9a"/>
  <rect x="26" y="28" width="4" height="4" fill="#8a8a8a"/>
  <rect x="26" y="32" width="4" height="4" fill="#9a9a9a"/>

  <!-- Blade edge (right) -->
  <rect x="34" y="12" width="4" height="4" fill="#5a5a5a"/>
  <rect x="34" y="16" width="4" height="4" fill="#4a4a4a"/>
  <rect x="34" y="20" width="4" height="4" fill="#5a5a5a"/>
  <rect x="34" y="24" width="4" height="4" fill="#4a4a4a"/>
  <rect x="34" y="28" width="4" height="4" fill="#5a5a5a"/>
  <rect x="34" y="32" width="4" height="4" fill="#4a4a4a"/>

  <!-- Crossguard -->
  <rect x="18" y="40" width="4" height="4" fill="#4a3728"/>
  <rect x="22" y="40" width="4" height="4" fill="#5a4738"/>
  <rect x="26" y="40" width="4" height="4" fill="#6a5748"/>
  <rect x="30" y="40" width="4" height="4" fill="#5a4738"/>
  <rect x="34" y="40" width="4" height="4" fill="#6a5748"/>
  <rect x="38" y="40" width="4" height="4" fill="#5a4738"/>
  <rect x="42" y="40" width="4" height="4" fill="#4a3728"/>

  <!-- Handle wrapped in cloth -->
  <rect x="30" y="44" width="4" height="4" fill="#8b7355"/>
  <rect x="30" y="48" width="4" height="4" fill="#6b5335"/>
  <rect x="30" y="52" width="4" height="4" fill="#8b7355"/>

  <!-- Pommel -->
  <rect x="28" y="56" width="8" height="4" fill="#4a3728"/>
</svg>
