<svg xmlns="http://www.w3.org/2000/svg" viewBox="0 0 64 64" width="64" height="64">
  <!-- Pixel Art: Angespitzter Stock (Common) -->

  <!-- Sharpened tip -->
  <rect x="30" y="8" width="4" height="4" fill="#d4c4a8"/>
  <rect x="30" y="12" width="4" height="4" fill="#c4b498"/>

  <!-- Main wooden shaft -->
  <rect x="28" y="16" width="8" height="4" fill="#8b7355"/>
  <rect x="28" y="20" width="8" height="4" fill="#7b6345"/>
  <rect x="28" y="24" width="8" height="4" fill="#8b7355"/>
  <rect x="28" y="28" width="8" height="4" fill="#6b5335"/>
  <rect x="28" y="32" width="8" height="4" fill="#8b7355"/>
  <rect x="28" y="36" width="8" height="4" fill="#7b6345"/>
  <rect x="28" y="40" width="8" height="4" fill="#8b7355"/>
  <rect x="28" y="44" width="8" height="4" fill="#6b5335"/>
  <rect x="28" y="48" width="8" height="4" fill="#8b7355"/>
  <rect x="28" y="52" width="8" height="4" fill="#7b6345"/>

  <!-- Wood grain details -->
  <rect x="32" y="24" width="4" height="4" fill="#6b5335"/>
  <rect x="28" y="36" width="4" height="4" fill="#5b4325"/>
  <rect x="32" y="48" width="4" height="4" fill="#6b5335"/>
</svg>
