<svg xmlns="http://www.w3.org/2000/svg" viewBox="0 0 64 64" width="64" height="64">
  <!-- Pixel Art: Drachenschuppen-Harnisch (Epic/Purple) -->

  <!-- Shoulder spikes -->
  <rect x="4" y="4" width="4" height="4" fill="#5a2d8e"/>
  <rect x="8" y="8" width="8" height="4" fill="#7a4dae"/>
  <rect x="48" y="8" width="8" height="4" fill="#6a3d9e"/>
  <rect x="56" y="4" width="4" height="4" fill="#5a2d8e"/>

  <!-- Dragon scale pattern - iridescent -->
  <rect x="12" y="12" width="4" height="4" fill="#6a3d9e"/>
  <rect x="16" y="12" width="4" height="4" fill="#8a5dbe"/>
  <rect x="20" y="12" width="4" height="4" fill="#7a4dae"/>
  <rect x="24" y="12" width="4" height="4" fill="#9a6dce"/>
  <rect x="28" y="12" width="4" height="4" fill="#8a5dbe"/>
  <rect x="32" y="12" width="4" height="4" fill="#9a6dce"/>
  <rect x="36" y="12" width="4" height="4" fill="#7a4dae"/>
  <rect x="40" y="12" width="4" height="4" fill="#8a5dbe"/>
  <rect x="44" y="12" width="4" height="4" fill="#6a3d9e"/>
  <rect x="48" y="12" width="4" height="4" fill="#5a2d8e"/>

  <rect x="14" y="16" width="4" height="4" fill="#8a5dbe"/>
  <rect x="18" y="16" width="4" height="4" fill="#6a3d9e"/>
  <rect x="22" y="16" width="4" height="4" fill="#8a5dbe"/>
  <rect x="26" y="16" width="4" height="4" fill="#aa7dde"/>
  <rect x="30" y="16" width="4" height="4" fill="#9a6dce"/>
  <rect x="34" y="16" width="4" height="4" fill="#aa7dde"/>
  <rect x="38" y="16" width="4" height="4" fill="#8a5dbe"/>
  <rect x="42" y="16" width="4" height="4" fill="#6a3d9e"/>
  <rect x="46" y="16" width="4" height="4" fill="#8a5dbe"/>

  <rect x="12" y="20" width="4" height="4" fill="#7a4dae"/>
  <rect x="16" y="20" width="4" height="4" fill="#9a6dce"/>
  <rect x="20" y="20" width="4" height="4" fill="#8a5dbe"/>
  <rect x="24" y="20" width="4" height="4" fill="#7a4dae"/>
  <rect x="28" y="20" width="4" height="4" fill="#9a6dce"/>
  <rect x="32" y="20" width="4" height="4" fill="#8a5dbe"/>
  <rect x="36" y="20" width="4" height="4" fill="#7a4dae"/>
  <rect x="40" y="20" width="4" height="4" fill="#9a6dce"/>
  <rect x="44" y="20" width="4" height="4" fill="#8a5dbe"/>
  <rect x="48" y="20" width="4" height="4" fill="#6a3d9e"/>

  <rect x="14" y="24" width="4" height="4" fill="#9a6dce"/>
  <rect x="18" y="24" width="4" height="4" fill="#8a5dbe"/>
  <rect x="22" y="24" width="4" height="4" fill="#9a6dce"/>
  <rect x="26" y="24" width="4" height="4" fill="#8a5dbe"/>
  <rect x="30" y="24" width="4" height="4" fill="#aa7dde"/>
  <rect x="34" y="24" width="4" height="4" fill="#8a5dbe"/>
  <rect x="38" y="24" width="4" height="4" fill="#9a6dce"/>
  <rect x="42" y="24" width="4" height="4" fill="#8a5dbe"/>
  <rect x="46" y="24" width="4" height="4" fill="#9a6dce"/>

  <!-- Gold trim -->
  <rect x="12" y="28" width="40" height="4" fill="#ffd700"/>

  <!-- Central dragon gem -->
  <rect x="28" y="18" width="8" height="8" fill="#ff4488"/>
</svg>
