<svg xmlns="http://www.w3.org/2000/svg" viewBox="0 0 64 64" width="64" height="64">
  <!-- Pixel Art: Robe des Erzmagiers (Epic/Purple) -->

  <!-- High collar -->
  <rect x="20" y="4" width="4" height="4" fill="#5a2d8e"/>
  <rect x="24" y="4" width="4" height="4" fill="#6a3d9e"/>
  <rect x="28" y="4" width="8" height="4" fill="#7a4dae"/>
  <rect x="36" y="4" width="4" height="4" fill="#6a3d9e"/>
  <rect x="40" y="4" width="4" height="4" fill="#5a2d8e"/>

  <!-- Shoulders -->
  <rect x="8" y="8" width="12" height="4" fill="#6a3d9e"/>
  <rect x="44" y="8" width="12" height="4" fill="#5a2d8e"/>

  <!-- Main robe body - flowing purple -->
  <rect x="12" y="12" width="4" height="4" fill="#7a4dae"/>
  <rect x="16" y="12" width="4" height="4" fill="#8a5dbe"/>
  <rect x="20" y="12" width="4" height="4" fill="#9a6dce"/>
  <rect x="24" y="12" width="4" height="4" fill="#8a5dbe"/>
  <rect x="28" y="12" width="8" height="4" fill="#aa7dde"/>
  <rect x="36" y="12" width="4" height="4" fill="#8a5dbe"/>
  <rect x="40" y="12" width="4" height="4" fill="#9a6dce"/>
  <rect x="44" y="12" width="4" height="4" fill="#8a5dbe"/>
  <rect x="48" y="12" width="4" height="4" fill="#7a4dae"/>

  <!-- Arcane symbols glow -->
  <rect x="16" y="16" width="4" height="4" fill="#60a0ff"/>
  <rect x="28" y="16" width="8" height="4" fill="#80c0ff"/>
  <rect x="44" y="16" width="4" height="4" fill="#60a0ff"/>

  <rect x="12" y="16" width="4" height="4" fill="#8a5dbe"/>
  <rect x="20" y="16" width="4" height="4" fill="#9a6dce"/>
  <rect x="24" y="16" width="4" height="4" fill="#aa7dde"/>
  <rect x="36" y="16" width="4" height="4" fill="#aa7dde"/>
  <rect x="40" y="16" width="4" height="4" fill="#9a6dce"/>
  <rect x="48" y="16" width="4" height="4" fill="#8a5dbe"/>

  <rect x="12" y="20" width="4" height="4" fill="#9a6dce"/>
  <rect x="16" y="20" width="4" height="4" fill="#aa7dde"/>
  <rect x="20" y="20" width="4" height="4" fill="#8a5dbe"/>
  <rect x="24" y="20" width="4" height="4" fill="#9a6dce"/>
  <rect x="28" y="20" width="8" height="4" fill="#aa7dde"/>
  <rect x="36" y="20" width="4" height="4" fill="#9a6dce"/>
  <rect x="40" y="20" width="4" height="4" fill="#8a5dbe"/>
  <rect x="44" y="20" width="4" height="4" fill="#aa7dde"/>
  <rect x="48" y="20" width="4" height="4" fill="#9a6dce"/>

  <rect x="12" y="24" width="4" height="4" fill="#8a5dbe"/>
  <rect x="16" y="24" width="4" height="4" fill="#9a6dce"/>
  <rect x="20" y="24" width="4" height="4" fill="#aa7dde"/>
  <rect x="24" y="24" width="4" height="4" fill="#8a5dbe"/>
  <rect x="28" y="24" width="8" height="4" fill="#9a6dce"/>
  <rect x="36" y="24" width="4" height="4" fill="#8a5dbe"/>
  <rect x="40" y="24" width="4" height="4" fill="#aa7dde"/>
  <rect x="44" y="24" width="4" height="4" fill="#9a6dce"/>
  <rect x="48" y="24" width="4" height="4" fill="#8a5dbe"/>

  <!-- Gold sash -->
  <rect x="12" y="28" width="40" height="4" fill="#ffd700"/>

  <!-- Flowing bottom -->
  <rect x="16" y="32" width="4" height="4" fill="#7a4dae"/>
  <rect x="24" y="32" width="4" height="4" fill="#8a5dbe"/>
  <rect x="32" y="32" width="4" height="4" fill="#8a5dbe"/>
  <rect x="40" y="32" width="4" height="4" fill="#7a4dae"/>
</svg>
