<svg xmlns="http://www.w3.org/2000/svg" viewBox="0 0 64 64" width="64" height="64">
  <!-- Pixel Art: Mithril-Kettenhemd (Epic/Purple) -->

  <!-- Light mithril glow -->
  <rect x="28" y="4" width="8" height="4" fill="#e0e8ff" opacity="0.5"/>

  <!-- Shoulder straps -->
  <rect x="8" y="8" width="12" height="4" fill="#b0b8d0"/>
  <rect x="44" y="8" width="12" height="4" fill="#a0a8c0"/>

  <!-- Mithril chain pattern - silvery blue with purple highlights -->
  <rect x="12" y="12" width="4" height="4" fill="#c0c8e0"/>
  <rect x="16" y="12" width="4" height="4" fill="#d0d8f0"/>
  <rect x="20" y="12" width="4" height="4" fill="#c0c8e0"/>
  <rect x="24" y="12" width="4" height="4" fill="#d0d8f0"/>
  <rect x="28" y="12" width="4" height="4" fill="#e0e8ff"/>
  <rect x="32" y="12" width="4" height="4" fill="#d0d8f0"/>
  <rect x="36" y="12" width="4" height="4" fill="#c0c8e0"/>
  <rect x="40" y="12" width="4" height="4" fill="#d0d8f0"/>
  <rect x="44" y="12" width="4" height="4" fill="#c0c8e0"/>
  <rect x="48" y="12" width="4" height="4" fill="#b0b8d0"/>

  <rect x="12" y="16" width="4" height="4" fill="#d0d8f0"/>
  <rect x="16" y="16" width="4" height="4" fill="#c0c8e0"/>
  <rect x="20" y="16" width="4" height="4" fill="#d0d8f0"/>
  <rect x="24" y="16" width="4" height="4" fill="#c0c8e0"/>
  <rect x="28" y="16" width="4" height="4" fill="#d0d8f0"/>
  <rect x="32" y="16" width="4" height="4" fill="#e0e8ff"/>
  <rect x="36" y="16" width="4" height="4" fill="#d0d8f0"/>
  <rect x="40" y="16" width="4" height="4" fill="#c0c8e0"/>
  <rect x="44" y="16" width="4" height="4" fill="#d0d8f0"/>
  <rect x="48" y="16" width="4" height="4" fill="#c0c8e0"/>

  <!-- Purple magical shimmer -->
  <rect x="20" y="16" width="4" height="4" fill="#a080d0"/>
  <rect x="40" y="20" width="4" height="4" fill="#9070c0"/>

  <rect x="12" y="20" width="4" height="4" fill="#c0c8e0"/>
  <rect x="16" y="20" width="4" height="4" fill="#d0d8f0"/>
  <rect x="24" y="20" width="4" height="4" fill="#d0d8f0"/>
  <rect x="28" y="20" width="4" height="4" fill="#c0c8e0"/>
  <rect x="32" y="20" width="4" height="4" fill="#d0d8f0"/>
  <rect x="36" y="20" width="4" height="4" fill="#c0c8e0"/>
  <rect x="44" y="20" width="4" height="4" fill="#c0c8e0"/>
  <rect x="48" y="20" width="4" height="4" fill="#b0b8d0"/>

  <rect x="12" y="24" width="4" height="4" fill="#d0d8f0"/>
  <rect x="16" y="24" width="4" height="4" fill="#c0c8e0"/>
  <rect x="20" y="24" width="4" height="4" fill="#d0d8f0"/>
  <rect x="24" y="24" width="4" height="4" fill="#c0c8e0"/>
  <rect x="28" y="24" width="4" height="4" fill="#d0d8f0"/>
  <rect x="32" y="24" width="4" height="4" fill="#c0c8e0"/>
  <rect x="36" y="24" width="4" height="4" fill="#d0d8f0"/>
  <rect x="40" y="24" width="4" height="4" fill="#c0c8e0"/>
  <rect x="44" y="24" width="4" height="4" fill="#d0d8f0"/>
  <rect x="48" y="24" width="4" height="4" fill="#c0c8e0"/>

  <!-- Purple gem belt -->
  <rect x="12" y="28" width="40" height="4" fill="#a335ee"/>

  <!-- Center gem -->
  <rect x="28" y="28" width="8" height="4" fill="#c080ff"/>
</svg>
