<svg xmlns="http://www.w3.org/2000/svg" viewBox="0 0 64 64" width="64" height="64">
  <!-- Pixel Art: Aegis der Goetter (Legendary/Orange) -->
  <rect x="16" y="0" width="32" height="4" fill="#ffdd00" opacity="0.5"/>
  <rect x="20" y="4" width="24" height="4" fill="#ddaa00"/>
  <rect x="16" y="8" width="32" height="4" fill="#eebb00"/>
  <rect x="12" y="12" width="40" height="4" fill="#ffcc00"/>
  <rect x="12" y="16" width="40" height="4" fill="#ffdd00"/>
  <rect x="26" y="10" width="12" height="12" fill="#ffffff"/>
  <rect x="28" y="12" width="8" height="8" fill="#4080ff"/>
  <rect x="30" y="14" width="4" height="4" fill="#000000"/>
  <rect x="31" y="15" width="2" height="2" fill="#ffffff"/>
  <rect x="12" y="20" width="40" height="4" fill="#ffcc00"/>
  <rect x="16" y="24" width="32" height="4" fill="#eebb00"/>
  <rect x="20" y="28" width="24" height="4" fill="#ddaa00"/>
  <rect x="24" y="32" width="16" height="4" fill="#cc9900"/>
  <rect x="28" y="36" width="8" height="4" fill="#bb8800"/>
  <rect x="28" y="40" width="8" height="4" fill="#996600"/>
</svg>
