<svg xmlns="http://www.w3.org/2000/svg" viewBox="0 0 64 64" width="64" height="64">
  <!-- Pixel Art: Schild des Ewigen (Legendary/Orange) -->
  <rect x="16" y="0" width="32" height="4" fill="#ff8800" opacity="0.5"/>
  <rect x="20" y="4" width="24" height="4" fill="#ff9900"/>
  <rect x="16" y="8" width="32" height="4" fill="#ffaa00"/>
  <rect x="12" y="12" width="40" height="4" fill="#ffbb00"/>
  <rect x="12" y="16" width="40" height="4" fill="#ffcc00"/>
  <!-- Infinity symbol -->
  <rect x="22" y="14" width="4" height="4" fill="#ffffff"/>
  <rect x="26" y="12" width="4" height="4" fill="#ffffff"/>
  <rect x="26" y="18" width="4" height="4" fill="#ffffff"/>
  <rect x="30" y="14" width="4" height="4" fill="#ffffff"/>
  <rect x="34" y="12" width="4" height="4" fill="#ffffff"/>
  <rect x="34" y="18" width="4" height="4" fill="#ffffff"/>
  <rect x="38" y="14" width="4" height="4" fill="#ffffff"/>
  <rect x="12" y="20" width="40" height="4" fill="#ffbb00"/>
  <rect x="16" y="24" width="32" height="4" fill="#ffaa00"/>
  <rect x="20" y="28" width="24" height="4" fill="#ff9900"/>
  <rect x="24" y="32" width="16" height="4" fill="#ff8800"/>
  <rect x="28" y="36" width="8" height="4" fill="#ee7700"/>
  <rect x="28" y="40" width="8" height="4" fill="#dd6600"/>
</svg>
