<svg xmlns="http://www.w3.org/2000/svg" viewBox="0 0 64 64" width="64" height="64">
  <!-- Pixel Art: Weltenbrecher (Legendary/Orange) -->
  <rect x="16" y="0" width="32" height="4" fill="#ff4400" opacity="0.5"/>
  <rect x="20" y="4" width="24" height="4" fill="#cc4400"/>
  <rect x="16" y="8" width="32" height="4" fill="#dd5500"/>
  <rect x="12" y="12" width="40" height="4" fill="#ee6600"/>
  <rect x="12" y="16" width="40" height="4" fill="#ff7700"/>
  <!-- Crack/shatter pattern -->
  <rect x="30" y="8" width="4" height="4" fill="#ffff00"/>
  <rect x="28" y="12" width="4" height="4" fill="#ffcc00"/>
  <rect x="34" y="12" width="4" height="4" fill="#ffcc00"/>
  <rect x="26" y="16" width="4" height="4" fill="#ffaa00"/>
  <rect x="34" y="16" width="4" height="4" fill="#ffaa00"/>
  <rect x="30" y="16" width="4" height="4" fill="#ffffff"/>
  <rect x="28" y="20" width="4" height="4" fill="#ffcc00"/>
  <rect x="34" y="20" width="4" height="4" fill="#ffcc00"/>
  <rect x="30" y="24" width="4" height="4" fill="#ffff00"/>
  <rect x="12" y="20" width="40" height="4" fill="#ee6600"/>
  <rect x="16" y="24" width="32" height="4" fill="#dd5500"/>
  <rect x="20" y="28" width="24" height="4" fill="#cc4400"/>
  <rect x="24" y="32" width="16" height="4" fill="#bb3300"/>
  <rect x="28" y="36" width="8" height="4" fill="#aa2200"/>
  <rect x="28" y="40" width="8" height="4" fill="#991100"/>
</svg>
