<svg xmlns="http://www.w3.org/2000/svg" viewBox="0 0 64 64" width="64" height="64">
  <!-- Pixel Art: Krone der Allwissenheit (Legendary/Orange) -->

  <!-- Divine light rays -->
  <rect x="20" y="0" width="4" height="4" fill="#ffff00" opacity="0.5"/>
  <rect x="28" y="0" width="8" height="4" fill="#ffffff" opacity="0.6"/>
  <rect x="40" y="0" width="4" height="4" fill="#ffff00" opacity="0.5"/>

  <!-- Central eye/wisdom crystal -->
  <rect x="28" y="4" width="4" height="4" fill="#ffffff"/>
  <rect x="32" y="4" width="4" height="4" fill="#ffffaa"/>
  <rect x="28" y="8" width="4" height="4" fill="#ffee00"/>
  <rect x="32" y="8" width="4" height="4" fill="#ffdd00"/>
  <rect x="30" y="6" width="4" height="4" fill="#00aaff"/>

  <!-- Crown spires -->
  <rect x="16" y="8" width="4" height="4" fill="#ff8000"/>
  <rect x="20" y="4" width="4" height="4" fill="#ffaa00"/>
  <rect x="20" y="8" width="4" height="4" fill="#ff9000"/>
  <rect x="24" y="8" width="4" height="4" fill="#ffbb00"/>

  <rect x="44" y="8" width="4" height="4" fill="#ff8000"/>
  <rect x="40" y="4" width="4" height="4" fill="#ffaa00"/>
  <rect x="40" y="8" width="4" height="4" fill="#ff9000"/>
  <rect x="36" y="8" width="4" height="4" fill="#ffbb00"/>

  <!-- Main crown band -->
  <rect x="8" y="12" width="4" height="4" fill="#cc6600"/>
  <rect x="12" y="12" width="4" height="4" fill="#ff8000"/>
  <rect x="16" y="12" width="4" height="4" fill="#ffaa00"/>
  <rect x="20" y="12" width="4" height="4" fill="#ffcc00"/>
  <rect x="24" y="12" width="4" height="4" fill="#ffdd00"/>
  <rect x="28" y="12" width="4" height="4" fill="#ffee00"/>
  <rect x="32" y="12" width="4" height="4" fill="#ffee00"/>
  <rect x="36" y="12" width="4" height="4" fill="#ffdd00"/>
  <rect x="40" y="12" width="4" height="4" fill="#ffcc00"/>
  <rect x="44" y="12" width="4" height="4" fill="#ffaa00"/>
  <rect x="48" y="12" width="4" height="4" fill="#ff8000"/>
  <rect x="52" y="12" width="4" height="4" fill="#cc6600"/>

  <!-- Wisdom gems -->
  <rect x="16" y="16" width="4" height="4" fill="#00aaff"/>
  <rect x="24" y="16" width="4" height="4" fill="#aa00ff"/>
  <rect x="36" y="16" width="4" height="4" fill="#aa00ff"/>
  <rect x="44" y="16" width="4" height="4" fill="#00aaff"/>

  <rect x="8" y="16" width="4" height="4" fill="#bb5500"/>
  <rect x="12" y="16" width="4" height="4" fill="#dd7700"/>
  <rect x="20" y="16" width="4" height="4" fill="#ffaa00"/>
  <rect x="28" y="16" width="4" height="4" fill="#ffd700"/>
  <rect x="32" y="16" width="4" height="4" fill="#ffd700"/>
  <rect x="40" y="16" width="4" height="4" fill="#ffaa00"/>
  <rect x="48" y="16" width="4" height="4" fill="#dd7700"/>
  <rect x="52" y="16" width="4" height="4" fill="#bb5500"/>

  <!-- Lower band -->
  <rect x="12" y="20" width="4" height="4" fill="#cc6600"/>
  <rect x="16" y="20" width="4" height="4" fill="#ee8800"/>
  <rect x="20" y="20" width="4" height="4" fill="#ff9900"/>
  <rect x="24" y="20" width="4" height="4" fill="#ffaa00"/>
  <rect x="28" y="20" width="4" height="4" fill="#ffbb00"/>
  <rect x="32" y="20" width="4" height="4" fill="#ffbb00"/>
  <rect x="36" y="20" width="4" height="4" fill="#ffaa00"/>
  <rect x="40" y="20" width="4" height="4" fill="#ff9900"/>
  <rect x="44" y="20" width="4" height="4" fill="#ee8800"/>
  <rect x="48" y="20" width="4" height="4" fill="#cc6600"/>

  <!-- Bottom rim -->
  <rect x="16" y="24" width="32" height="4" fill="#dd7700"/>
</svg>
