<svg xmlns="http://www.w3.org/2000/svg" viewBox="0 0 64 64" width="64" height="64">
  <!-- Pixel Art: Sternenlicht-Tiara (Legendary/Orange) -->

  <!-- Starlight glow -->
  <rect x="16" y="0" width="4" height="4" fill="#ffffff" opacity="0.6"/>
  <rect x="28" y="0" width="8" height="4" fill="#ffffaa" opacity="0.7"/>
  <rect x="44" y="0" width="4" height="4" fill="#ffffff" opacity="0.6"/>

  <!-- Central star -->
  <rect x="28" y="4" width="4" height="4" fill="#ffffff"/>
  <rect x="32" y="4" width="4" height="4" fill="#ffffcc"/>
  <rect x="26" y="8" width="4" height="4" fill="#ffeeaa"/>
  <rect x="30" y="8" width="4" height="4" fill="#ffffff"/>
  <rect x="34" y="8" width="4" height="4" fill="#ffeeaa"/>

  <!-- Side stars -->
  <rect x="16" y="8" width="4" height="4" fill="#ffcc00"/>
  <rect x="20" y="8" width="4" height="4" fill="#ffdd00"/>
  <rect x="40" y="8" width="4" height="4" fill="#ffdd00"/>
  <rect x="44" y="8" width="4" height="4" fill="#ffcc00"/>

  <!-- Tiara band - celestial silver and gold -->
  <rect x="8" y="12" width="4" height="4" fill="#c0c0d0"/>
  <rect x="12" y="12" width="4" height="4" fill="#d0d0e0"/>
  <rect x="16" y="12" width="4" height="4" fill="#ffd700"/>
  <rect x="20" y="12" width="4" height="4" fill="#e0e0f0"/>
  <rect x="24" y="12" width="4" height="4" fill="#ff8000"/>
  <rect x="28" y="12" width="4" height="4" fill="#ffaa00"/>
  <rect x="32" y="12" width="4" height="4" fill="#ffaa00"/>
  <rect x="36" y="12" width="4" height="4" fill="#ff8000"/>
  <rect x="40" y="12" width="4" height="4" fill="#e0e0f0"/>
  <rect x="44" y="12" width="4" height="4" fill="#ffd700"/>
  <rect x="48" y="12" width="4" height="4" fill="#d0d0e0"/>
  <rect x="52" y="12" width="4" height="4" fill="#c0c0d0"/>

  <!-- Moonstone gems -->
  <rect x="12" y="16" width="4" height="4" fill="#aaccff"/>
  <rect x="24" y="16" width="4" height="4" fill="#ffaaff"/>
  <rect x="36" y="16" width="4" height="4" fill="#ffaaff"/>
  <rect x="48" y="16" width="4" height="4" fill="#aaccff"/>

  <rect x="8" y="16" width="4" height="4" fill="#b0b0c0"/>
  <rect x="16" y="16" width="4" height="4" fill="#d0d0e0"/>
  <rect x="20" y="16" width="4" height="4" fill="#ffcc00"/>
  <rect x="28" y="16" width="4" height="4" fill="#ff9000"/>
  <rect x="32" y="16" width="4" height="4" fill="#ff9000"/>
  <rect x="40" y="16" width="4" height="4" fill="#ffcc00"/>
  <rect x="44" y="16" width="4" height="4" fill="#d0d0e0"/>
  <rect x="52" y="16" width="4" height="4" fill="#b0b0c0"/>

  <!-- Lower band -->
  <rect x="12" y="20" width="4" height="4" fill="#c0c0d0"/>
  <rect x="16" y="20" width="4" height="4" fill="#d0d0e0"/>
  <rect x="20" y="20" width="4" height="4" fill="#e0e0f0"/>
  <rect x="24" y="20" width="4" height="4" fill="#ffbb00"/>
  <rect x="28" y="20" width="4" height="4" fill="#ffcc00"/>
  <rect x="32" y="20" width="4" height="4" fill="#ffcc00"/>
  <rect x="36" y="20" width="4" height="4" fill="#ffbb00"/>
  <rect x="40" y="20" width="4" height="4" fill="#e0e0f0"/>
  <rect x="44" y="20" width="4" height="4" fill="#d0d0e0"/>
  <rect x="48" y="20" width="4" height="4" fill="#c0c0d0"/>

  <!-- Delicate points at bottom -->
  <rect x="20" y="24" width="4" height="4" fill="#c0c0d0"/>
  <rect x="28" y="24" width="8" height="4" fill="#e0e0f0"/>
  <rect x="40" y="24" width="4" height="4" fill="#c0c0d0"/>
</svg>
