<svg xmlns="http://www.w3.org/2000/svg" viewBox="0 0 64 64" width="64" height="64">
  <!-- Pixel Art: Diadem des Gelehrten (Epic/Purple) -->

  <!-- Magical glow -->
  <rect x="28" y="4" width="8" height="4" fill="#d080ff" opacity="0.5"/>
  <rect x="24" y="8" width="4" height="4" fill="#b060dd" opacity="0.4"/>
  <rect x="36" y="8" width="4" height="4" fill="#b060dd" opacity="0.4"/>

  <!-- Central crystal -->
  <rect x="28" y="8" width="4" height="4" fill="#ffffff"/>
  <rect x="32" y="8" width="4" height="4" fill="#e0c0ff"/>
  <rect x="28" y="12" width="4" height="4" fill="#d0b0ff"/>
  <rect x="32" y="12" width="4" height="4" fill="#c0a0ee"/>

  <!-- Crystal glow -->
  <rect x="30" y="10" width="4" height="4" fill="#ff80ff"/>

  <!-- Silver band -->
  <rect x="12" y="16" width="4" height="4" fill="#808090"/>
  <rect x="16" y="16" width="4" height="4" fill="#a0a0b0"/>
  <rect x="20" y="16" width="4" height="4" fill="#c0c0d0"/>
  <rect x="24" y="16" width="4" height="4" fill="#d0d0e0"/>
  <rect x="28" y="16" width="4" height="4" fill="#a335ee"/>
  <rect x="32" y="16" width="4" height="4" fill="#a335ee"/>
  <rect x="36" y="16" width="4" height="4" fill="#d0d0e0"/>
  <rect x="40" y="16" width="4" height="4" fill="#c0c0d0"/>
  <rect x="44" y="16" width="4" height="4" fill="#a0a0b0"/>
  <rect x="48" y="16" width="4" height="4" fill="#808090"/>

  <!-- Rune engravings -->
  <rect x="16" y="20" width="4" height="4" fill="#b060dd"/>
  <rect x="24" y="20" width="4" height="4" fill="#a335ee"/>
  <rect x="36" y="20" width="4" height="4" fill="#a335ee"/>
  <rect x="44" y="20" width="4" height="4" fill="#b060dd"/>

  <rect x="12" y="20" width="4" height="4" fill="#707080"/>
  <rect x="20" y="20" width="4" height="4" fill="#b0b0c0"/>
  <rect x="28" y="20" width="4" height="4" fill="#c0c0d0"/>
  <rect x="32" y="20" width="4" height="4" fill="#c0c0d0"/>
  <rect x="40" y="20" width="4" height="4" fill="#b0b0c0"/>
  <rect x="48" y="20" width="4" height="4" fill="#707080"/>

  <!-- Lower band -->
  <rect x="16" y="24" width="4" height="4" fill="#909090"/>
  <rect x="20" y="24" width="4" height="4" fill="#a0a0a0"/>
  <rect x="24" y="24" width="4" height="4" fill="#b0b0b0"/>
  <rect x="28" y="24" width="4" height="4" fill="#c0c0c0"/>
  <rect x="32" y="24" width="4" height="4" fill="#c0c0c0"/>
  <rect x="36" y="24" width="4" height="4" fill="#b0b0b0"/>
  <rect x="40" y="24" width="4" height="4" fill="#a0a0a0"/>
  <rect x="44" y="24" width="4" height="4" fill="#909090"/>

  <!-- Side gems -->
  <rect x="12" y="24" width="4" height="4" fill="#a335ee"/>
  <rect x="48" y="24" width="4" height="4" fill="#a335ee"/>
</svg>
