<svg xmlns="http://www.w3.org/2000/svg" viewBox="0 0 64 64" width="64" height="64">
  <!-- Pixel Art: Phoenixfeder-Haube (Epic/Purple) -->

  <!-- Phoenix feather glow -->
  <rect x="28" y="0" width="4" height="4" fill="#ff6600" opacity="0.7"/>
  <rect x="32" y="0" width="4" height="4" fill="#ff8800" opacity="0.6"/>

  <!-- Main phoenix feather -->
  <rect x="28" y="4" width="4" height="4" fill="#ff4400"/>
  <rect x="32" y="4" width="4" height="4" fill="#ff6600"/>
  <rect x="28" y="8" width="4" height="4" fill="#ff2200"/>
  <rect x="32" y="8" width="4" height="4" fill="#ff4400"/>
  <rect x="36" y="8" width="4" height="4" fill="#ff6600"/>
  <rect x="24" y="12" width="4" height="4" fill="#cc0000"/>
  <rect x="28" y="12" width="4" height="4" fill="#ff2200"/>
  <rect x="32" y="12" width="4" height="4" fill="#ff4400"/>
  <rect x="36" y="12" width="4" height="4" fill="#ff6600"/>

  <!-- Side feathers -->
  <rect x="16" y="8" width="4" height="4" fill="#ffaa00"/>
  <rect x="20" y="12" width="4" height="4" fill="#ff8800"/>
  <rect x="44" y="8" width="4" height="4" fill="#ffaa00"/>
  <rect x="40" y="12" width="4" height="4" fill="#ff8800"/>

  <!-- Helmet base - purple/gold -->
  <rect x="12" y="16" width="4" height="4" fill="#5a2d8e"/>
  <rect x="16" y="16" width="4" height="4" fill="#7a4dae"/>
  <rect x="20" y="16" width="4" height="4" fill="#8a5dbe"/>
  <rect x="24" y="16" width="4" height="4" fill="#ffd700"/>
  <rect x="28" y="16" width="4" height="4" fill="#a335ee"/>
  <rect x="32" y="16" width="4" height="4" fill="#a335ee"/>
  <rect x="36" y="16" width="4" height="4" fill="#ffd700"/>
  <rect x="40" y="16" width="4" height="4" fill="#8a5dbe"/>
  <rect x="44" y="16" width="4" height="4" fill="#7a4dae"/>
  <rect x="48" y="16" width="4" height="4" fill="#5a2d8e"/>

  <!-- Main band -->
  <rect x="12" y="20" width="4" height="4" fill="#4a1d7e"/>
  <rect x="16" y="20" width="4" height="4" fill="#6a3d9e"/>
  <rect x="20" y="20" width="4" height="4" fill="#8a5dbe"/>
  <rect x="24" y="20" width="4" height="4" fill="#9a6dce"/>
  <rect x="28" y="20" width="4" height="4" fill="#ffd700"/>
  <rect x="32" y="20" width="4" height="4" fill="#ffd700"/>
  <rect x="36" y="20" width="4" height="4" fill="#9a6dce"/>
  <rect x="40" y="20" width="4" height="4" fill="#8a5dbe"/>
  <rect x="44" y="20" width="4" height="4" fill="#6a3d9e"/>
  <rect x="48" y="20" width="4" height="4" fill="#4a1d7e"/>

  <!-- Face guard -->
  <rect x="16" y="24" width="4" height="4" fill="#5a2d8e"/>
  <rect x="20" y="24" width="4" height="4" fill="#7a4dae"/>
  <rect x="24" y="24" width="4" height="4" fill="#8a5dbe"/>
  <rect x="28" y="24" width="4" height="4" fill="#9a6dce"/>
  <rect x="32" y="24" width="4" height="4" fill="#9a6dce"/>
  <rect x="36" y="24" width="4" height="4" fill="#8a5dbe"/>
  <rect x="40" y="24" width="4" height="4" fill="#7a4dae"/>
  <rect x="44" y="24" width="4" height="4" fill="#5a2d8e"/>

  <!-- Lower rim -->
  <rect x="20" y="28" width="4" height="4" fill="#5a2d8e"/>
  <rect x="24" y="28" width="4" height="4" fill="#6a3d9e"/>
  <rect x="28" y="28" width="4" height="4" fill="#7a4dae"/>
  <rect x="32" y="28" width="4" height="4" fill="#7a4dae"/>
  <rect x="36" y="28" width="4" height="4" fill="#6a3d9e"/>
  <rect x="40" y="28" width="4" height="4" fill="#5a2d8e"/>
</svg>
