<svg xmlns="http://www.w3.org/2000/svg" viewBox="0 0 64 64" width="64" height="64">
  <!-- Pixel Art: Kurzes Kettenhemd (Uncommon/Green) -->

  <!-- Shoulder straps -->
  <rect x="12" y="8" width="8" height="4" fill="#507050"/>
  <rect x="44" y="8" width="8" height="4" fill="#406040"/>

  <!-- Chain mail pattern - alternating for link effect -->
  <rect x="12" y="12" width="4" height="4" fill="#608060"/>
  <rect x="16" y="12" width="4" height="4" fill="#709070"/>
  <rect x="20" y="12" width="4" height="4" fill="#608060"/>
  <rect x="24" y="12" width="4" height="4" fill="#709070"/>
  <rect x="28" y="12" width="4" height="4" fill="#608060"/>
  <rect x="32" y="12" width="4" height="4" fill="#709070"/>
  <rect x="36" y="12" width="4" height="4" fill="#608060"/>
  <rect x="40" y="12" width="4" height="4" fill="#709070"/>
  <rect x="44" y="12" width="4" height="4" fill="#608060"/>
  <rect x="48" y="12" width="4" height="4" fill="#507050"/>

  <rect x="12" y="16" width="4" height="4" fill="#709070"/>
  <rect x="16" y="16" width="4" height="4" fill="#608060"/>
  <rect x="20" y="16" width="4" height="4" fill="#709070"/>
  <rect x="24" y="16" width="4" height="4" fill="#608060"/>
  <rect x="28" y="16" width="4" height="4" fill="#709070"/>
  <rect x="32" y="16" width="4" height="4" fill="#608060"/>
  <rect x="36" y="16" width="4" height="4" fill="#709070"/>
  <rect x="40" y="16" width="4" height="4" fill="#608060"/>
  <rect x="44" y="16" width="4" height="4" fill="#709070"/>
  <rect x="48" y="16" width="4" height="4" fill="#608060"/>

  <rect x="12" y="20" width="4" height="4" fill="#608060"/>
  <rect x="16" y="20" width="4" height="4" fill="#709070"/>
  <rect x="20" y="20" width="4" height="4" fill="#608060"/>
  <rect x="24" y="20" width="4" height="4" fill="#709070"/>
  <rect x="28" y="20" width="4" height="4" fill="#608060"/>
  <rect x="32" y="20" width="4" height="4" fill="#709070"/>
  <rect x="36" y="20" width="4" height="4" fill="#608060"/>
  <rect x="40" y="20" width="4" height="4" fill="#709070"/>
  <rect x="44" y="20" width="4" height="4" fill="#608060"/>
  <rect x="48" y="20" width="4" height="4" fill="#507050"/>

  <!-- Rust spots -->
  <rect x="20" y="16" width="4" height="4" fill="#8b5a2b"/>
  <rect x="40" y="20" width="4" height="4" fill="#7b4a1b"/>

  <!-- Bottom edge -->
  <rect x="12" y="24" width="4" height="4" fill="#709070"/>
  <rect x="16" y="24" width="4" height="4" fill="#608060"/>
  <rect x="20" y="24" width="4" height="4" fill="#709070"/>
  <rect x="24" y="24" width="4" height="4" fill="#608060"/>
  <rect x="28" y="24" width="4" height="4" fill="#709070"/>
  <rect x="32" y="24" width="4" height="4" fill="#608060"/>
  <rect x="36" y="24" width="4" height="4" fill="#709070"/>
  <rect x="40" y="24" width="4" height="4" fill="#608060"/>
  <rect x="44" y="24" width="4" height="4" fill="#709070"/>
  <rect x="48" y="24" width="4" height="4" fill="#608060"/>

  <!-- Leather trim -->
  <rect x="12" y="28" width="40" height="4" fill="#5a4a3a"/>
</svg>
