<svg xmlns="http://www.w3.org/2000/svg" viewBox="0 0 64 64" width="64" height="64">
  <!-- Pixel Art: Gehaertete Lederweste (Uncommon/Green) -->

  <!-- Shoulder guards -->
  <rect x="8" y="8" width="8" height="4" fill="#3a5a3a"/>
  <rect x="48" y="8" width="8" height="4" fill="#2a4a2a"/>

  <!-- Main hardened leather body -->
  <rect x="12" y="12" width="4" height="4" fill="#4a6a4a"/>
  <rect x="16" y="12" width="4" height="4" fill="#5a7a5a"/>
  <rect x="20" y="12" width="4" height="4" fill="#4a6a4a"/>
  <rect x="24" y="12" width="4" height="4" fill="#5a7a5a"/>
  <rect x="28" y="12" width="4" height="4" fill="#6a8a6a"/>
  <rect x="32" y="12" width="4" height="4" fill="#5a7a5a"/>
  <rect x="36" y="12" width="4" height="4" fill="#4a6a4a"/>
  <rect x="40" y="12" width="4" height="4" fill="#5a7a5a"/>
  <rect x="44" y="12" width="4" height="4" fill="#4a6a4a"/>
  <rect x="48" y="12" width="4" height="4" fill="#3a5a3a"/>

  <rect x="12" y="16" width="4" height="4" fill="#5a7a5a"/>
  <rect x="16" y="16" width="4" height="4" fill="#6a8a6a"/>
  <rect x="20" y="16" width="4" height="4" fill="#5a7a5a"/>
  <rect x="24" y="16" width="4" height="4" fill="#6a8a6a"/>
  <rect x="28" y="16" width="4" height="4" fill="#7a9a7a"/>
  <rect x="32" y="16" width="4" height="4" fill="#6a8a6a"/>
  <rect x="36" y="16" width="4" height="4" fill="#5a7a5a"/>
  <rect x="40" y="16" width="4" height="4" fill="#6a8a6a"/>
  <rect x="44" y="16" width="4" height="4" fill="#5a7a5a"/>
  <rect x="48" y="16" width="4" height="4" fill="#4a6a4a"/>

  <rect x="12" y="20" width="4" height="4" fill="#4a6a4a"/>
  <rect x="16" y="20" width="4" height="4" fill="#5a7a5a"/>
  <rect x="20" y="20" width="4" height="4" fill="#6a8a6a"/>
  <rect x="24" y="20" width="4" height="4" fill="#5a7a5a"/>
  <rect x="28" y="20" width="4" height="4" fill="#6a8a6a"/>
  <rect x="32" y="20" width="4" height="4" fill="#5a7a5a"/>
  <rect x="36" y="20" width="4" height="4" fill="#6a8a6a"/>
  <rect x="40" y="20" width="4" height="4" fill="#5a7a5a"/>
  <rect x="44" y="20" width="4" height="4" fill="#4a6a4a"/>
  <rect x="48" y="20" width="4" height="4" fill="#3a5a3a"/>

  <rect x="12" y="24" width="4" height="4" fill="#3a5a3a"/>
  <rect x="16" y="24" width="4" height="4" fill="#4a6a4a"/>
  <rect x="20" y="24" width="4" height="4" fill="#5a7a5a"/>
  <rect x="24" y="24" width="4" height="4" fill="#4a6a4a"/>
  <rect x="28" y="24" width="4" height="4" fill="#5a7a5a"/>
  <rect x="32" y="24" width="4" height="4" fill="#4a6a4a"/>
  <rect x="36" y="24" width="4" height="4" fill="#5a7a5a"/>
  <rect x="40" y="24" width="4" height="4" fill="#4a6a4a"/>
  <rect x="44" y="24" width="4" height="4" fill="#3a5a3a"/>
  <rect x="48" y="24" width="4" height="4" fill="#2a4a2a"/>

  <!-- Belt -->
  <rect x="12" y="28" width="40" height="4" fill="#4a3a2a"/>

  <!-- Buckle -->
  <rect x="28" y="28" width="8" height="4" fill="#c0c0c0"/>
</svg>
