<svg xmlns="http://www.w3.org/2000/svg" viewBox="0 0 64 64" width="64" height="64">
  <!-- Pixel Art: Alter Kavalleriesaebel (Uncommon/Green) -->

  <!-- Curved blade tip -->
  <rect x="26" y="4" width="4" height="4" fill="#c0c0c0"/>
  <rect x="30" y="8" width="4" height="4" fill="#b0b0b0"/>

  <!-- Curved blade body -->
  <rect x="30" y="12" width="4" height="4" fill="#a0a0a0"/>
  <rect x="30" y="16" width="4" height="4" fill="#b0b0b0"/>
  <rect x="30" y="20" width="4" height="4" fill="#a0a0a0"/>
  <rect x="30" y="24" width="4" height="4" fill="#b0b0b0"/>
  <rect x="30" y="28" width="4" height="4" fill="#a0a0a0"/>
  <rect x="30" y="32" width="4" height="4" fill="#b0b0b0"/>

  <!-- Blade curve highlight -->
  <rect x="26" y="8" width="4" height="4" fill="#d0d0d0"/>
  <rect x="26" y="12" width="4" height="4" fill="#c0c0c0"/>
  <rect x="26" y="16" width="4" height="4" fill="#d0d0d0"/>
  <rect x="26" y="20" width="4" height="4" fill="#c0c0c0"/>
  <rect x="26" y="24" width="4" height="4" fill="#d0d0d0"/>
  <rect x="26" y="28" width="4" height="4" fill="#c0c0c0"/>

  <!-- Green brass guard (uncommon) -->
  <rect x="22" y="36" width="4" height="4" fill="#2d5a2d"/>
  <rect x="26" y="36" width="4" height="4" fill="#3d6a3d"/>
  <rect x="30" y="36" width="4" height="4" fill="#2d5a2d"/>
  <rect x="34" y="36" width="4" height="4" fill="#3d6a3d"/>
  <rect x="38" y="36" width="4" height="4" fill="#2d5a2d"/>

  <!-- Handle -->
  <rect x="30" y="40" width="4" height="4" fill="#4a3020"/>
  <rect x="30" y="44" width="4" height="4" fill="#3a2010"/>
  <rect x="30" y="48" width="4" height="4" fill="#4a3020"/>

  <!-- Pommel -->
  <rect x="28" y="52" width="8" height="4" fill="#3d6a3d"/>
</svg>
