<svg xmlns="http://www.w3.org/2000/svg" viewBox="0 0 64 64" width="64" height="64">
  <!-- Pixel Art: Adamant-Stiefel (Legendary/Orange) -->
  <rect x="4" y="0" width="56" height="4" fill="#ff8800" opacity="0.5"/>
  <!-- Left adamant boot -->
  <rect x="4" y="4" width="20" height="4" fill="#ff4400"/>
  <rect x="4" y="8" width="24" height="4" fill="#cc6600"/>
  <rect x="4" y="12" width="24" height="4" fill="#dd7700"/>
  <rect x="4" y="16" width="24" height="4" fill="#ee8800"/>
  <rect x="4" y="20" width="24" height="4" fill="#ff9900"/>
  <rect x="4" y="24" width="24" height="4" fill="#ee8800"/>
  <rect x="4" y="28" width="24" height="4" fill="#ff9900"/>
  <rect x="4" y="32" width="24" height="4" fill="#ee8800"/>
  <rect x="4" y="36" width="24" height="8" fill="#cc6600"/>
  <!-- Right adamant boot -->
  <rect x="36" y="4" width="20" height="4" fill="#ff4400"/>
  <rect x="36" y="8" width="24" height="4" fill="#cc6600"/>
  <rect x="36" y="12" width="24" height="4" fill="#ee8800"/>
  <rect x="36" y="16" width="24" height="4" fill="#dd7700"/>
  <rect x="36" y="20" width="24" height="4" fill="#ff9900"/>
  <rect x="36" y="24" width="24" height="4" fill="#ee8800"/>
  <rect x="36" y="28" width="24" height="4" fill="#ff9900"/>
  <rect x="36" y="32" width="24" height="4" fill="#ee8800"/>
  <rect x="36" y="36" width="24" height="8" fill="#cc6600"/>
  <!-- Power glow -->
  <rect x="12" y="20" width="4" height="4" fill="#ffcc00"/>
  <rect x="48" y="24" width="4" height="4" fill="#ffcc00"/>
</svg>
