<svg xmlns="http://www.w3.org/2000/svg" viewBox="0 0 64 64" width="64" height="64">
  <!-- Pixel Art: Weltenschneider (Legendary/Orange) -->

  <!-- Dimensional rifts/glow -->
  <rect x="18" y="4" width="4" height="4" fill="#ff8000" opacity="0.6"/>
  <rect x="42" y="8" width="4" height="4" fill="#ffaa00" opacity="0.5"/>
  <rect x="16" y="16" width="4" height="4" fill="#ff6000" opacity="0.7"/>
  <rect x="44" y="24" width="4" height="4" fill="#ff8000" opacity="0.6"/>
  <rect x="18" y="32" width="4" height="4" fill="#ffaa00" opacity="0.5"/>

  <!-- Reality-splitting blade tip -->
  <rect x="30" y="0" width="4" height="4" fill="#ffffff"/>
  <rect x="30" y="4" width="4" height="4" fill="#ffe0a0"/>

  <!-- Dimensional blade -->
  <rect x="30" y="8" width="4" height="4" fill="#ffc060"/>
  <rect x="30" y="12" width="4" height="4" fill="#ffaa40"/>
  <rect x="30" y="16" width="4" height="4" fill="#ff9020"/>
  <rect x="30" y="20" width="4" height="4" fill="#ffaa40"/>
  <rect x="30" y="24" width="4" height="4" fill="#ff9020"/>
  <rect x="30" y="28" width="4" height="4" fill="#ffaa40"/>
  <rect x="30" y="32" width="4" height="4" fill="#ff8000"/>

  <!-- Reality shimmer left -->
  <rect x="26" y="4" width="4" height="4" fill="#ffffff"/>
  <rect x="26" y="8" width="4" height="4" fill="#ffe080"/>
  <rect x="26" y="12" width="4" height="4" fill="#ffd060"/>
  <rect x="26" y="16" width="4" height="4" fill="#ffe080"/>
  <rect x="26" y="20" width="4" height="4" fill="#ffd060"/>
  <rect x="26" y="24" width="4" height="4" fill="#ffe080"/>
  <rect x="26" y="28" width="4" height="4" fill="#ffd060"/>

  <!-- Void shadow right -->
  <rect x="34" y="8" width="4" height="4" fill="#804000"/>
  <rect x="34" y="12" width="4" height="4" fill="#603000"/>
  <rect x="34" y="16" width="4" height="4" fill="#804000"/>
  <rect x="34" y="20" width="4" height="4" fill="#603000"/>
  <rect x="34" y="24" width="4" height="4" fill="#804000"/>
  <rect x="34" y="28" width="4" height="4" fill="#603000"/>

  <!-- Legendary ornate crossguard -->
  <rect x="14" y="36" width="4" height="4" fill="#ff8000"/>
  <rect x="18" y="36" width="4" height="4" fill="#ffd700"/>
  <rect x="22" y="36" width="4" height="4" fill="#ff8000"/>
  <rect x="26" y="36" width="4" height="4" fill="#ffd700"/>
  <rect x="30" y="36" width="4" height="4" fill="#ffffff"/>
  <rect x="34" y="36" width="4" height="4" fill="#ffd700"/>
  <rect x="38" y="36" width="4" height="4" fill="#ff8000"/>
  <rect x="42" y="36" width="4" height="4" fill="#ffd700"/>
  <rect x="46" y="36" width="4" height="4" fill="#ff8000"/>

  <!-- Golden handle -->
  <rect x="30" y="40" width="4" height="4" fill="#cc8000"/>
  <rect x="30" y="44" width="4" height="4" fill="#aa6000"/>
  <rect x="30" y="48" width="4" height="4" fill="#cc8000"/>

  <!-- Legendary gem pommel -->
  <rect x="26" y="52" width="4" height="4" fill="#ffd700"/>
  <rect x="30" y="52" width="4" height="4" fill="#ff4400"/>
  <rect x="34" y="52" width="4" height="4" fill="#ffd700"/>
</svg>
