<svg xmlns="http://www.w3.org/2000/svg" viewBox="0 0 64 64" width="64" height="64">
  <!-- Pixel Art: Spiegelschild (Epic/Purple) -->
  <rect x="20" y="0" width="24" height="4" fill="#ffffff" opacity="0.3"/>
  <rect x="16" y="4" width="4" height="28" fill="#5a2d8e"/>
  <rect x="44" y="4" width="4" height="28" fill="#5a2d8e"/>
  <rect x="20" y="4" width="24" height="4" fill="#d0d0d0"/>
  <rect x="20" y="8" width="24" height="4" fill="#e8e8e8"/>
  <rect x="20" y="12" width="24" height="4" fill="#ffffff"/>
  <rect x="20" y="12" width="8" height="8" fill="#ffffff"/>
  <rect x="20" y="16" width="24" height="4" fill="#e8e8e8"/>
  <rect x="20" y="20" width="24" height="4" fill="#d8d8d8"/>
  <rect x="20" y="24" width="24" height="4" fill="#c8c8c8"/>
  <rect x="20" y="28" width="24" height="4" fill="#b8b8b8"/>
  <rect x="20" y="32" width="4" height="4" fill="#4a1d7e"/>
  <rect x="40" y="32" width="4" height="4" fill="#4a1d7e"/>
  <rect x="24" y="32" width="16" height="4" fill="#a8a8a8"/>
  <rect x="24" y="36" width="4" height="4" fill="#5a2d8e"/>
  <rect x="36" y="36" width="4" height="4" fill="#5a2d8e"/>
  <rect x="28" y="36" width="8" height="4" fill="#9a9a9a"/>
  <rect x="28" y="40" width="8" height="4" fill="#4a1d7e"/>
</svg>
