<svg xmlns="http://www.w3.org/2000/svg" viewBox="0 0 64 64" width="64" height="64">
  <!-- Pixel Art: Kettenbeinlinge (Uncommon/Green) -->
  <!-- Metal belt -->
  <rect x="16" y="4" width="32" height="4" fill="#6a6a6a"/>
  <rect x="28" y="4" width="8" height="4" fill="#4d8a4d"/>
  <!-- Chain pattern main -->
  <rect x="16" y="8" width="32" height="8" fill="#8a8a8a"/>
  <!-- Left leg chain -->
  <rect x="16" y="16" width="12" height="4" fill="#7a7a7a"/>
  <rect x="16" y="20" width="12" height="4" fill="#9a9a9a"/>
  <rect x="16" y="24" width="12" height="4" fill="#7a7a7a"/>
  <rect x="16" y="28" width="12" height="4" fill="#9a9a9a"/>
  <rect x="16" y="32" width="12" height="4" fill="#7a7a7a"/>
  <rect x="16" y="36" width="12" height="8" fill="#6a6a6a"/>
  <!-- Right leg chain -->
  <rect x="36" y="16" width="12" height="4" fill="#7a7a7a"/>
  <rect x="36" y="20" width="12" height="4" fill="#9a9a9a"/>
  <rect x="36" y="24" width="12" height="4" fill="#7a7a7a"/>
  <rect x="36" y="28" width="12" height="4" fill="#9a9a9a"/>
  <rect x="36" y="32" width="12" height="4" fill="#7a7a7a"/>
  <rect x="36" y="36" width="12" height="8" fill="#6a6a6a"/>
  <!-- Green accents -->
  <rect x="20" y="20" width="4" height="4" fill="#3d7a3d"/>
  <rect x="40" y="28" width="4" height="4" fill="#3d7a3d"/>
</svg>
