<svg xmlns="http://www.w3.org/2000/svg" viewBox="0 0 64 64" width="64" height="64">
  <!-- Pixel Art: Zerfranste Wollmuetze (Common) -->

  <!-- Top pom-pom (frayed) -->
  <rect x="28" y="8" width="4" height="4" fill="#8b6b4b"/>
  <rect x="32" y="8" width="4" height="4" fill="#7b5b3b"/>
  <rect x="24" y="12" width="4" height="4" fill="#7b5b3b"/>
  <rect x="28" y="12" width="4" height="4" fill="#9b7b5b"/>
  <rect x="32" y="12" width="4" height="4" fill="#8b6b4b"/>
  <rect x="36" y="12" width="4" height="4" fill="#6b4b2b"/>

  <!-- Main cap body -->
  <rect x="20" y="16" width="4" height="4" fill="#8b6b4b"/>
  <rect x="24" y="16" width="4" height="4" fill="#9b7b5b"/>
  <rect x="28" y="16" width="4" height="4" fill="#ab8b6b"/>
  <rect x="32" y="16" width="4" height="4" fill="#9b7b5b"/>
  <rect x="36" y="16" width="4" height="4" fill="#8b6b4b"/>
  <rect x="40" y="16" width="4" height="4" fill="#7b5b3b"/>

  <rect x="16" y="20" width="4" height="4" fill="#7b5b3b"/>
  <rect x="20" y="20" width="4" height="4" fill="#9b7b5b"/>
  <rect x="24" y="20" width="4" height="4" fill="#ab8b6b"/>
  <rect x="28" y="20" width="4" height="4" fill="#bb9b7b"/>
  <rect x="32" y="20" width="4" height="4" fill="#ab8b6b"/>
  <rect x="36" y="20" width="4" height="4" fill="#9b7b5b"/>
  <rect x="40" y="20" width="4" height="4" fill="#8b6b4b"/>
  <rect x="44" y="20" width="4" height="4" fill="#6b4b2b"/>

  <!-- Moth holes -->
  <rect x="24" y="24" width="4" height="4" fill="#5b3b1b"/>
  <rect x="36" y="28" width="4" height="4" fill="#4b2b0b"/>

  <rect x="16" y="24" width="4" height="4" fill="#6b4b2b"/>
  <rect x="20" y="24" width="4" height="4" fill="#8b6b4b"/>
  <rect x="28" y="24" width="4" height="4" fill="#ab8b6b"/>
  <rect x="32" y="24" width="4" height="4" fill="#9b7b5b"/>
  <rect x="40" y="24" width="4" height="4" fill="#7b5b3b"/>
  <rect x="44" y="24" width="4" height="4" fill="#5b3b1b"/>

  <rect x="16" y="28" width="4" height="4" fill="#5b3b1b"/>
  <rect x="20" y="28" width="4" height="4" fill="#7b5b3b"/>
  <rect x="24" y="28" width="4" height="4" fill="#8b6b4b"/>
  <rect x="28" y="28" width="4" height="4" fill="#9b7b5b"/>
  <rect x="32" y="28" width="4" height="4" fill="#8b6b4b"/>
  <rect x="40" y="28" width="4" height="4" fill="#6b4b2b"/>
  <rect x="44" y="28" width="4" height="4" fill="#4b2b0b"/>

  <!-- Frayed bottom edge -->
  <rect x="16" y="32" width="4" height="4" fill="#6b4b2b"/>
  <rect x="20" y="32" width="4" height="4" fill="#8b6b4b"/>
  <rect x="24" y="32" width="4" height="4" fill="#7b5b3b"/>
  <rect x="28" y="32" width="4" height="4" fill="#9b7b5b"/>
  <rect x="32" y="32" width="4" height="4" fill="#7b5b3b"/>
  <rect x="36" y="32" width="4" height="4" fill="#8b6b4b"/>
  <rect x="40" y="32" width="4" height="4" fill="#6b4b2b"/>
  <rect x="44" y="32" width="4" height="4" fill="#5b3b1b"/>

  <!-- Hanging threads -->
  <rect x="20" y="36" width="4" height="4" fill="#7b5b3b"/>
  <rect x="32" y="36" width="4" height="4" fill="#6b4b2b"/>
  <rect x="40" y="36" width="4" height="4" fill="#5b3b1b"/>
</svg>
