<svg xmlns="http://www.w3.org/2000/svg" viewBox="0 0 64 64" width="64" height="64">
  <!-- Pixel Art: Loechtiger Strohhut (Common) -->

  <!-- Top crown -->
  <rect x="24" y="12" width="4" height="4" fill="#d4b896"/>
  <rect x="28" y="8" width="4" height="4" fill="#e4c8a6"/>
  <rect x="32" y="8" width="4" height="4" fill="#d4b896"/>
  <rect x="36" y="12" width="4" height="4" fill="#c4a886"/>

  <rect x="20" y="16" width="4" height="4" fill="#c4a886"/>
  <rect x="24" y="16" width="4" height="4" fill="#e4c8a6"/>
  <rect x="28" y="16" width="4" height="4" fill="#f4d8b6"/>
  <rect x="32" y="16" width="4" height="4" fill="#e4c8a6"/>
  <rect x="36" y="16" width="4" height="4" fill="#d4b896"/>
  <rect x="40" y="16" width="4" height="4" fill="#b49876"/>

  <!-- Holes in crown -->
  <rect x="28" y="20" width="4" height="4" fill="#806040"/>

  <rect x="16" y="20" width="4" height="4" fill="#b49876"/>
  <rect x="20" y="20" width="4" height="4" fill="#d4b896"/>
  <rect x="24" y="20" width="4" height="4" fill="#e4c8a6"/>
  <rect x="32" y="20" width="4" height="4" fill="#d4b896"/>
  <rect x="36" y="20" width="4" height="4" fill="#c4a886"/>
  <rect x="40" y="20" width="4" height="4" fill="#b49876"/>
  <rect x="44" y="20" width="4" height="4" fill="#a48866"/>

  <!-- Crown base -->
  <rect x="16" y="24" width="4" height="4" fill="#a48866"/>
  <rect x="20" y="24" width="4" height="4" fill="#c4a886"/>
  <rect x="24" y="24" width="4" height="4" fill="#d4b896"/>
  <rect x="28" y="24" width="4" height="4" fill="#c4a886"/>
  <rect x="32" y="24" width="4" height="4" fill="#d4b896"/>
  <rect x="36" y="24" width="4" height="4" fill="#c4a886"/>
  <rect x="40" y="24" width="4" height="4" fill="#a48866"/>
  <rect x="44" y="24" width="4" height="4" fill="#947856"/>

  <!-- Wide brim with holes -->
  <rect x="4" y="28" width="4" height="4" fill="#947856"/>
  <rect x="8" y="28" width="4" height="4" fill="#a48866"/>
  <rect x="12" y="28" width="4" height="4" fill="#b49876"/>
  <rect x="16" y="28" width="4" height="4" fill="#c4a886"/>
  <rect x="20" y="28" width="4" height="4" fill="#d4b896"/>
  <rect x="24" y="28" width="4" height="4" fill="#e4c8a6"/>
  <rect x="28" y="28" width="4" height="4" fill="#d4b896"/>
  <rect x="32" y="28" width="4" height="4" fill="#e4c8a6"/>
  <rect x="36" y="28" width="4" height="4" fill="#d4b896"/>
  <rect x="40" y="28" width="4" height="4" fill="#c4a886"/>
  <rect x="44" y="28" width="4" height="4" fill="#b49876"/>
  <rect x="48" y="28" width="4" height="4" fill="#a48866"/>
  <rect x="52" y="28" width="4" height="4" fill="#947856"/>
  <rect x="56" y="28" width="4" height="4" fill="#846846"/>

  <!-- Brim holes -->
  <rect x="12" y="32" width="4" height="4" fill="#705030"/>
  <rect x="40" y="32" width="4" height="4" fill="#604020"/>

  <!-- Lower brim -->
  <rect x="8" y="32" width="4" height="4" fill="#a48866"/>
  <rect x="16" y="32" width="4" height="4" fill="#c4a886"/>
  <rect x="20" y="32" width="4" height="4" fill="#d4b896"/>
  <rect x="24" y="32" width="4" height="4" fill="#c4a886"/>
  <rect x="28" y="32" width="4" height="4" fill="#d4b896"/>
  <rect x="32" y="32" width="4" height="4" fill="#c4a886"/>
  <rect x="36" y="32" width="4" height="4" fill="#d4b896"/>
  <rect x="44" y="32" width="4" height="4" fill="#b49876"/>
  <rect x="48" y="32" width="4" height="4" fill="#947856"/>
  <rect x="52" y="32" width="4" height="4" fill="#846846"/>
</svg>
