<svg xmlns="http://www.w3.org/2000/svg" viewBox="0 0 64 64" width="64" height="64">
  <!-- Pixel Art: Verbeulter Topfhelm (Common) -->

  <!-- Pot body - dented gray metal -->
  <rect x="16" y="16" width="4" height="4" fill="#606060"/>
  <rect x="20" y="12" width="4" height="4" fill="#707070"/>
  <rect x="24" y="8" width="4" height="4" fill="#808080"/>
  <rect x="28" y="8" width="4" height="4" fill="#909090"/>
  <rect x="32" y="8" width="4" height="4" fill="#808080"/>
  <rect x="36" y="8" width="4" height="4" fill="#707070"/>
  <rect x="40" y="12" width="4" height="4" fill="#606060"/>
  <rect x="44" y="16" width="4" height="4" fill="#505050"/>

  <!-- Main pot body -->
  <rect x="12" y="20" width="4" height="4" fill="#707070"/>
  <rect x="16" y="20" width="4" height="4" fill="#808080"/>
  <rect x="20" y="20" width="4" height="4" fill="#909090"/>
  <rect x="24" y="20" width="4" height="4" fill="#a0a0a0"/>
  <rect x="28" y="20" width="4" height="4" fill="#909090"/>
  <rect x="32" y="20" width="4" height="4" fill="#808080"/>
  <rect x="36" y="20" width="4" height="4" fill="#707070"/>
  <rect x="40" y="20" width="4" height="4" fill="#606060"/>
  <rect x="44" y="20" width="4" height="4" fill="#505050"/>
  <rect x="48" y="20" width="4" height="4" fill="#404040"/>

  <!-- Dent -->
  <rect x="36" y="24" width="4" height="4" fill="#505050"/>
  <rect x="40" y="28" width="4" height="4" fill="#404040"/>

  <!-- Lower pot -->
  <rect x="12" y="24" width="4" height="4" fill="#606060"/>
  <rect x="16" y="24" width="4" height="4" fill="#707070"/>
  <rect x="20" y="24" width="4" height="4" fill="#808080"/>
  <rect x="24" y="24" width="4" height="4" fill="#909090"/>
  <rect x="28" y="24" width="4" height="4" fill="#808080"/>
  <rect x="32" y="24" width="4" height="4" fill="#707070"/>
  <rect x="44" y="24" width="4" height="4" fill="#505050"/>
  <rect x="48" y="24" width="4" height="4" fill="#404040"/>

  <!-- Rim -->
  <rect x="12" y="28" width="4" height="4" fill="#505050"/>
  <rect x="16" y="28" width="4" height="4" fill="#606060"/>
  <rect x="20" y="28" width="4" height="4" fill="#707070"/>
  <rect x="24" y="28" width="4" height="4" fill="#808080"/>
  <rect x="28" y="28" width="4" height="4" fill="#707070"/>
  <rect x="32" y="28" width="4" height="4" fill="#606060"/>
  <rect x="36" y="28" width="4" height="4" fill="#505050"/>
  <rect x="44" y="28" width="4" height="4" fill="#404040"/>
  <rect x="48" y="28" width="4" height="4" fill="#303030"/>

  <!-- Bottom rim -->
  <rect x="16" y="32" width="32" height="4" fill="#505050"/>

  <!-- Eye slit -->
  <rect x="20" y="36" width="24" height="4" fill="#202020"/>

  <!-- Chin guard -->
  <rect x="20" y="40" width="24" height="4" fill="#606060"/>
  <rect x="24" y="44" width="16" height="4" fill="#505050"/>
</svg>
