<svg xmlns="http://www.w3.org/2000/svg" viewBox="0 0 64 64" width="64" height="64">
  <!-- Pixel Art: Adamant-Plattenruestung (Legendary/Orange) -->

  <!-- Legendary glow -->
  <rect x="24" y="0" width="16" height="4" fill="#ff8800" opacity="0.5"/>

  <!-- Massive shoulder plates -->
  <rect x="0" y="4" width="12" height="8" fill="#cc6600"/>
  <rect x="4" y="4" width="8" height="4" fill="#ff8000"/>
  <rect x="52" y="4" width="12" height="8" fill="#bb5500"/>
  <rect x="52" y="4" width="8" height="4" fill="#ee7000"/>

  <!-- Main adamant plate body - indestructible dark orange -->
  <rect x="12" y="8" width="4" height="4" fill="#dd7700"/>
  <rect x="16" y="8" width="4" height="4" fill="#ff9900"/>
  <rect x="20" y="8" width="4" height="4" fill="#ffaa00"/>
  <rect x="24" y="8" width="4" height="4" fill="#ffbb00"/>
  <rect x="28" y="8" width="8" height="4" fill="#ffcc00"/>
  <rect x="36" y="8" width="4" height="4" fill="#ffbb00"/>
  <rect x="40" y="8" width="4" height="4" fill="#ffaa00"/>
  <rect x="44" y="8" width="4" height="4" fill="#ff9900"/>
  <rect x="48" y="8" width="4" height="4" fill="#dd7700"/>

  <rect x="12" y="12" width="4" height="4" fill="#ff9900"/>
  <rect x="16" y="12" width="4" height="4" fill="#ffaa00"/>
  <rect x="20" y="12" width="4" height="4" fill="#ffbb00"/>
  <rect x="24" y="12" width="4" height="4" fill="#ffcc00"/>
  <rect x="28" y="12" width="8" height="4" fill="#ffdd00"/>
  <rect x="36" y="12" width="4" height="4" fill="#ffcc00"/>
  <rect x="40" y="12" width="4" height="4" fill="#ffbb00"/>
  <rect x="44" y="12" width="4" height="4" fill="#ffaa00"/>
  <rect x="48" y="12" width="4" height="4" fill="#ff9900"/>

  <!-- Chest plate details -->
  <rect x="20" y="16" width="4" height="4" fill="#ffcc00"/>
  <rect x="24" y="16" width="4" height="4" fill="#ffdd00"/>
  <rect x="28" y="16" width="8" height="4" fill="#ffee00"/>
  <rect x="36" y="16" width="4" height="4" fill="#ffdd00"/>
  <rect x="40" y="16" width="4" height="4" fill="#ffcc00"/>

  <rect x="12" y="16" width="4" height="4" fill="#ffaa00"/>
  <rect x="16" y="16" width="4" height="4" fill="#ffbb00"/>
  <rect x="44" y="16" width="4" height="4" fill="#ffbb00"/>
  <rect x="48" y="16" width="4" height="4" fill="#ffaa00"/>

  <rect x="12" y="20" width="4" height="4" fill="#ff9900"/>
  <rect x="16" y="20" width="4" height="4" fill="#ffaa00"/>
  <rect x="20" y="20" width="4" height="4" fill="#ffbb00"/>
  <rect x="24" y="20" width="4" height="4" fill="#ffcc00"/>
  <rect x="28" y="20" width="8" height="4" fill="#ffdd00"/>
  <rect x="36" y="20" width="4" height="4" fill="#ffcc00"/>
  <rect x="40" y="20" width="4" height="4" fill="#ffbb00"/>
  <rect x="44" y="20" width="4" height="4" fill="#ffaa00"/>
  <rect x="48" y="20" width="4" height="4" fill="#ff9900"/>

  <!-- Abdominal plates -->
  <rect x="16" y="24" width="4" height="4" fill="#ff9900"/>
  <rect x="20" y="24" width="4" height="4" fill="#ffaa00"/>
  <rect x="24" y="24" width="4" height="4" fill="#ffbb00"/>
  <rect x="28" y="24" width="8" height="4" fill="#ffcc00"/>
  <rect x="36" y="24" width="4" height="4" fill="#ffbb00"/>
  <rect x="40" y="24" width="4" height="4" fill="#ffaa00"/>
  <rect x="44" y="24" width="4" height="4" fill="#ff9900"/>

  <!-- Legendary belt with gems -->
  <rect x="12" y="28" width="40" height="4" fill="#ffd700"/>

  <!-- Power core -->
  <rect x="28" y="18" width="8" height="8" fill="#ff4400"/>
  <rect x="30" y="20" width="4" height="4" fill="#ffff00"/>
</svg>
