<svg xmlns="http://www.w3.org/2000/svg" viewBox="0 0 64 64" width="64" height="64">
  <!-- Pixel Art: Gewand des Obersten Erzmagiers (Legendary/Orange) -->

  <!-- Arcane storm aura -->
  <rect x="20" y="0" width="4" height="4" fill="#80c0ff" opacity="0.6"/>
  <rect x="40" y="0" width="4" height="4" fill="#ff80ff" opacity="0.6"/>
  <rect x="28" y="0" width="8" height="4" fill="#ffaa00" opacity="0.7"/>

  <!-- High mystical collar -->
  <rect x="16" y="4" width="4" height="4" fill="#cc6600"/>
  <rect x="20" y="4" width="4" height="4" fill="#ff8000"/>
  <rect x="24" y="4" width="4" height="4" fill="#ffaa00"/>
  <rect x="28" y="4" width="8" height="4" fill="#ffcc00"/>
  <rect x="36" y="4" width="4" height="4" fill="#ffaa00"/>
  <rect x="40" y="4" width="4" height="4" fill="#ff8000"/>
  <rect x="44" y="4" width="4" height="4" fill="#cc6600"/>

  <!-- Shoulders with arcane energy -->
  <rect x="4" y="8" width="12" height="4" fill="#ff8000"/>
  <rect x="8" y="8" width="4" height="4" fill="#80c0ff"/>
  <rect x="48" y="8" width="12" height="4" fill="#ee7000"/>
  <rect x="52" y="8" width="4" height="4" fill="#ff80ff"/>

  <!-- Main robe body - orange with magical patterns -->
  <rect x="12" y="12" width="4" height="4" fill="#ff9000"/>
  <rect x="16" y="12" width="4" height="4" fill="#ffaa00"/>
  <rect x="20" y="12" width="4" height="4" fill="#ffbb00"/>
  <rect x="24" y="12" width="4" height="4" fill="#ffcc00"/>
  <rect x="28" y="12" width="8" height="4" fill="#ffdd00"/>
  <rect x="36" y="12" width="4" height="4" fill="#ffcc00"/>
  <rect x="40" y="12" width="4" height="4" fill="#ffbb00"/>
  <rect x="44" y="12" width="4" height="4" fill="#ffaa00"/>
  <rect x="48" y="12" width="4" height="4" fill="#ff9000"/>

  <!-- Arcane runes glowing -->
  <rect x="16" y="16" width="4" height="4" fill="#80c0ff"/>
  <rect x="28" y="16" width="8" height="4" fill="#ffffff"/>
  <rect x="44" y="16" width="4" height="4" fill="#ff80ff"/>

  <rect x="12" y="16" width="4" height="4" fill="#ffaa00"/>
  <rect x="20" y="16" width="4" height="4" fill="#ffcc00"/>
  <rect x="24" y="16" width="4" height="4" fill="#ffdd00"/>
  <rect x="36" y="16" width="4" height="4" fill="#ffdd00"/>
  <rect x="40" y="16" width="4" height="4" fill="#ffcc00"/>
  <rect x="48" y="16" width="4" height="4" fill="#ffaa00"/>

  <rect x="12" y="20" width="4" height="4" fill="#ffbb00"/>
  <rect x="16" y="20" width="4" height="4" fill="#ffcc00"/>
  <rect x="20" y="20" width="4" height="4" fill="#ffdd00"/>
  <rect x="24" y="20" width="4" height="4" fill="#ffcc00"/>
  <rect x="28" y="20" width="8" height="4" fill="#ffee00"/>
  <rect x="36" y="20" width="4" height="4" fill="#ffcc00"/>
  <rect x="40" y="20" width="4" height="4" fill="#ffdd00"/>
  <rect x="44" y="20" width="4" height="4" fill="#ffcc00"/>
  <rect x="48" y="20" width="4" height="4" fill="#ffbb00"/>

  <rect x="12" y="24" width="4" height="4" fill="#ffaa00"/>
  <rect x="16" y="24" width="4" height="4" fill="#ffbb00"/>
  <rect x="20" y="24" width="4" height="4" fill="#ffcc00"/>
  <rect x="24" y="24" width="4" height="4" fill="#ffbb00"/>
  <rect x="28" y="24" width="8" height="4" fill="#ffcc00"/>
  <rect x="36" y="24" width="4" height="4" fill="#ffbb00"/>
  <rect x="40" y="24" width="4" height="4" fill="#ffcc00"/>
  <rect x="44" y="24" width="4" height="4" fill="#ffbb00"/>
  <rect x="48" y="24" width="4" height="4" fill="#ffaa00"/>

  <!-- Legendary sash -->
  <rect x="12" y="28" width="40" height="4" fill="#ffd700"/>

  <!-- Power gems -->
  <rect x="20" y="28" width="4" height="4" fill="#00aaff"/>
  <rect x="28" y="28" width="8" height="4" fill="#ff44ff"/>
  <rect x="40" y="28" width="4" height="4" fill="#00aaff"/>

  <!-- Flowing bottom -->
  <rect x="16" y="32" width="4" height="4" fill="#ff9000"/>
  <rect x="24" y="32" width="4" height="4" fill="#ffaa00"/>
  <rect x="32" y="32" width="4" height="4" fill="#ffaa00"/>
  <rect x="40" y="32" width="4" height="4" fill="#ff9000"/>
</svg>
