<svg xmlns="http://www.w3.org/2000/svg" viewBox="0 0 32 32" width="32" height="32">
  <!-- Ausgebeulte Stoffhose - Common Item -->
  <rect x="0" y="0" width="32" height="32" fill="#2a2a2a"/>
  <!-- Hosenbund -->
  <rect x="8" y="4" width="16" height="4" fill="#6B4423"/>
  <!-- Strick-Gürtel -->
  <line x1="8" y1="6" x2="24" y2="6" stroke="#8B6914" stroke-width="2"/>
  <circle cx="16" cy="6" r="1.5" fill="#8B6914"/>
  <!-- Linkes Bein (ausgebeult am Knie) -->
  <path d="M8 8 L8 14 Q6 18 8 22 L10 28 L14 28 L14 8 Z" fill="#8B5A2B"/>
  <!-- Rechtes Bein (ausgebeult am Knie) -->
  <path d="M18 8 L18 28 L22 28 L24 22 Q26 18 24 14 L24 8 Z" fill="#8B5A2B"/>
  <!-- Ausbeulungen (heller) -->
  <ellipse cx="9" cy="18" rx="3" ry="4" fill="#9C6B3C"/>
  <ellipse cx="23" cy="18" rx="3" ry="4" fill="#9C6B3C"/>
  <!-- Taschen -->
  <rect x="9" y="10" width="4" height="5" fill="#6B4423" stroke="#4A3015" stroke-width="0.5"/>
  <rect x="19" y="10" width="4" height="5" fill="#6B4423" stroke="#4A3015" stroke-width="0.5"/>
  <!-- Falten/Nähte -->
  <line x1="11" y1="8" x2="11" y2="28" stroke="#6B4423" stroke-width="0.5"/>
  <line x1="21" y1="8" x2="21" y2="28" stroke="#6B4423" stroke-width="0.5"/>
  <!-- Common Rahmen -->
  <rect x="0" y="0" width="32" height="32" fill="none" stroke="#808080" stroke-width="2"/>
</svg>