<svg xmlns="http://www.w3.org/2000/svg" viewBox="0 0 64 64" width="64" height="64">
  <!-- Pixel Art: Adamant-Beinplatten (Legendary/Orange) -->
  <rect x="16" y="0" width="32" height="4" fill="#ff8800" opacity="0.4"/>
  <!-- Adamant belt -->
  <rect x="16" y="4" width="32" height="4" fill="#cc6600"/>
  <rect x="28" y="4" width="8" height="4" fill="#ff4400"/>
  <!-- Massive plate body -->
  <rect x="16" y="8" width="32" height="8" fill="#dd7700"/>
  <!-- Left plate leg -->
  <rect x="16" y="16" width="12" height="4" fill="#ee8800"/>
  <rect x="16" y="20" width="12" height="4" fill="#ff9900"/>
  <rect x="16" y="24" width="12" height="4" fill="#ee8800"/>
  <rect x="16" y="28" width="12" height="4" fill="#ff9900"/>
  <rect x="16" y="32" width="12" height="4" fill="#ee8800"/>
  <rect x="16" y="36" width="12" height="8" fill="#cc6600"/>
  <!-- Right plate leg -->
  <rect x="36" y="16" width="12" height="4" fill="#ff9900"/>
  <rect x="36" y="20" width="12" height="4" fill="#ee8800"/>
  <rect x="36" y="24" width="12" height="4" fill="#ff9900"/>
  <rect x="36" y="28" width="12" height="4" fill="#ee8800"/>
  <rect x="36" y="32" width="12" height="4" fill="#ff9900"/>
  <rect x="36" y="36" width="12" height="8" fill="#cc6600"/>
  <!-- Power core glow -->
  <rect x="20" y="24" width="4" height="4" fill="#ffcc00"/>
  <rect x="40" y="24" width="4" height="4" fill="#ffcc00"/>
</svg>
