<svg xmlns="http://www.w3.org/2000/svg" viewBox="0 0 64 64" width="64" height="64">
  <!-- Pixel Art: Blitzschlag-Saebel (Epic/Purple) -->

  <!-- Electric sparks -->
  <rect x="22" y="6" width="4" height="4" fill="#00ffff" opacity="0.7"/>
  <rect x="40" y="12" width="4" height="4" fill="#80ffff" opacity="0.6"/>
  <rect x="18" y="20" width="4" height="4" fill="#00ffff" opacity="0.5"/>
  <rect x="42" y="28" width="4" height="4" fill="#80ffff" opacity="0.7"/>

  <!-- Electric blade tip -->
  <rect x="26" y="4" width="4" height="4" fill="#80ffff"/>
  <rect x="30" y="8" width="4" height="4" fill="#60e0ff"/>

  <!-- Lightning blade -->
  <rect x="30" y="12" width="4" height="4" fill="#40c0ff"/>
  <rect x="30" y="16" width="4" height="4" fill="#60e0ff"/>
  <rect x="30" y="20" width="4" height="4" fill="#40c0ff"/>
  <rect x="30" y="24" width="4" height="4" fill="#60e0ff"/>
  <rect x="30" y="28" width="4" height="4" fill="#40c0ff"/>
  <rect x="30" y="32" width="4" height="4" fill="#60e0ff"/>

  <!-- Electric glow left -->
  <rect x="26" y="8" width="4" height="4" fill="#a0ffff"/>
  <rect x="26" y="12" width="4" height="4" fill="#80ffff"/>
  <rect x="26" y="16" width="4" height="4" fill="#a0ffff"/>
  <rect x="26" y="20" width="4" height="4" fill="#80ffff"/>
  <rect x="26" y="24" width="4" height="4" fill="#a0ffff"/>
  <rect x="26" y="28" width="4" height="4" fill="#80ffff"/>

  <!-- Blade shadow right -->
  <rect x="34" y="12" width="4" height="4" fill="#2080a0"/>
  <rect x="34" y="16" width="4" height="4" fill="#1070a0"/>
  <rect x="34" y="20" width="4" height="4" fill="#2080a0"/>
  <rect x="34" y="24" width="4" height="4" fill="#1070a0"/>
  <rect x="34" y="28" width="4" height="4" fill="#2080a0"/>

  <!-- Purple/gold crossguard (epic) -->
  <rect x="18" y="36" width="4" height="4" fill="#a335ee"/>
  <rect x="22" y="36" width="4" height="4" fill="#ffd700"/>
  <rect x="26" y="36" width="4" height="4" fill="#a335ee"/>
  <rect x="30" y="36" width="4" height="4" fill="#ffd700"/>
  <rect x="34" y="36" width="4" height="4" fill="#a335ee"/>
  <rect x="38" y="36" width="4" height="4" fill="#ffd700"/>
  <rect x="42" y="36" width="4" height="4" fill="#a335ee"/>

  <!-- Handle -->
  <rect x="30" y="40" width="4" height="4" fill="#5a2d8e"/>
  <rect x="30" y="44" width="4" height="4" fill="#4a1d7e"/>
  <rect x="30" y="48" width="4" height="4" fill="#5a2d8e"/>

  <!-- Lightning gem pommel -->
  <rect x="28" y="52" width="8" height="4" fill="#00ffff"/>
</svg>
