<svg xmlns="http://www.w3.org/2000/svg" viewBox="0 0 64 64" width="64" height="64">
  <!-- Pixel Art: Seelenschneider (Epic/Purple) -->

  <!-- Dark ethereal glow -->
  <rect x="22" y="8" width="4" height="4" fill="#4a0080" opacity="0.5"/>
  <rect x="38" y="16" width="4" height="4" fill="#6a00a0" opacity="0.4"/>
  <rect x="20" y="24" width="4" height="4" fill="#4a0080" opacity="0.5"/>

  <!-- Dark blade tip -->
  <rect x="30" y="4" width="4" height="4" fill="#2a0050"/>

  <!-- Dark ethereal blade -->
  <rect x="30" y="8" width="4" height="4" fill="#3a0070"/>
  <rect x="30" y="12" width="4" height="4" fill="#4a0080"/>
  <rect x="30" y="16" width="4" height="4" fill="#3a0070"/>
  <rect x="30" y="20" width="4" height="4" fill="#4a0080"/>
  <rect x="30" y="24" width="4" height="4" fill="#3a0070"/>
  <rect x="30" y="28" width="4" height="4" fill="#4a0080"/>
  <rect x="30" y="32" width="4" height="4" fill="#3a0070"/>

  <!-- Soul energy left -->
  <rect x="26" y="8" width="4" height="4" fill="#6a00b0"/>
  <rect x="26" y="12" width="4" height="4" fill="#8a00d0"/>
  <rect x="26" y="16" width="4" height="4" fill="#6a00b0"/>
  <rect x="26" y="20" width="4" height="4" fill="#8a00d0"/>
  <rect x="26" y="24" width="4" height="4" fill="#6a00b0"/>
  <rect x="26" y="28" width="4" height="4" fill="#8a00d0"/>

  <!-- Blade shadow right -->
  <rect x="34" y="8" width="4" height="4" fill="#1a0030"/>
  <rect x="34" y="12" width="4" height="4" fill="#0a0020"/>
  <rect x="34" y="16" width="4" height="4" fill="#1a0030"/>
  <rect x="34" y="20" width="4" height="4" fill="#0a0020"/>
  <rect x="34" y="24" width="4" height="4" fill="#1a0030"/>
  <rect x="34" y="28" width="4" height="4" fill="#0a0020"/>

  <!-- Purple ornate crossguard -->
  <rect x="18" y="36" width="4" height="4" fill="#a335ee"/>
  <rect x="22" y="36" width="4" height="4" fill="#b345ff"/>
  <rect x="26" y="36" width="4" height="4" fill="#a335ee"/>
  <rect x="30" y="36" width="4" height="4" fill="#ffd700"/>
  <rect x="34" y="36" width="4" height="4" fill="#a335ee"/>
  <rect x="38" y="36" width="4" height="4" fill="#b345ff"/>
  <rect x="42" y="36" width="4" height="4" fill="#a335ee"/>

  <!-- Dark handle -->
  <rect x="30" y="40" width="4" height="4" fill="#2a0050"/>
  <rect x="30" y="44" width="4" height="4" fill="#1a0040"/>
  <rect x="30" y="48" width="4" height="4" fill="#2a0050"/>

  <!-- Skull pommel -->
  <rect x="26" y="52" width="4" height="4" fill="#e0e0e0"/>
  <rect x="30" y="52" width="4" height="4" fill="#d0d0d0"/>
  <rect x="34" y="52" width="4" height="4" fill="#e0e0e0"/>
</svg>
