<svg xmlns="http://www.w3.org/2000/svg" viewBox="0 0 64 64" width="64" height="64">
  <!-- Pixel Art: Billiger Eisenhelm (Uncommon/Green) -->

  <!-- Top dome -->
  <rect x="24" y="8" width="4" height="4" fill="#608060"/>
  <rect x="28" y="4" width="4" height="4" fill="#709070"/>
  <rect x="32" y="4" width="4" height="4" fill="#608060"/>
  <rect x="36" y="8" width="4" height="4" fill="#507050"/>

  <rect x="20" y="12" width="4" height="4" fill="#507050"/>
  <rect x="24" y="12" width="4" height="4" fill="#709070"/>
  <rect x="28" y="12" width="4" height="4" fill="#80a080"/>
  <rect x="32" y="12" width="4" height="4" fill="#709070"/>
  <rect x="36" y="12" width="4" height="4" fill="#608060"/>
  <rect x="40" y="12" width="4" height="4" fill="#406040"/>

  <!-- Main helmet body -->
  <rect x="16" y="16" width="4" height="4" fill="#406040"/>
  <rect x="20" y="16" width="4" height="4" fill="#608060"/>
  <rect x="24" y="16" width="4" height="4" fill="#80a080"/>
  <rect x="28" y="16" width="4" height="4" fill="#90b090"/>
  <rect x="32" y="16" width="4" height="4" fill="#80a080"/>
  <rect x="36" y="16" width="4" height="4" fill="#709070"/>
  <rect x="40" y="16" width="4" height="4" fill="#507050"/>
  <rect x="44" y="16" width="4" height="4" fill="#305030"/>

  <rect x="12" y="20" width="4" height="4" fill="#305030"/>
  <rect x="16" y="20" width="4" height="4" fill="#507050"/>
  <rect x="20" y="20" width="4" height="4" fill="#709070"/>
  <rect x="24" y="20" width="4" height="4" fill="#90b090"/>
  <rect x="28" y="20" width="4" height="4" fill="#a0c0a0"/>
  <rect x="32" y="20" width="4" height="4" fill="#90b090"/>
  <rect x="36" y="20" width="4" height="4" fill="#80a080"/>
  <rect x="40" y="20" width="4" height="4" fill="#608060"/>
  <rect x="44" y="20" width="4" height="4" fill="#406040"/>
  <rect x="48" y="20" width="4" height="4" fill="#203020"/>

  <!-- Nose guard -->
  <rect x="28" y="24" width="8" height="4" fill="#709070"/>
  <rect x="28" y="28" width="8" height="4" fill="#608060"/>
  <rect x="28" y="32" width="8" height="4" fill="#507050"/>

  <!-- Side guards -->
  <rect x="12" y="24" width="4" height="4" fill="#305030"/>
  <rect x="16" y="24" width="4" height="4" fill="#507050"/>
  <rect x="20" y="24" width="4" height="4" fill="#608060"/>
  <rect x="40" y="24" width="4" height="4" fill="#507050"/>
  <rect x="44" y="24" width="4" height="4" fill="#305030"/>
  <rect x="48" y="24" width="4" height="4" fill="#203020"/>

  <!-- Eye slits -->
  <rect x="20" y="28" width="4" height="4" fill="#102010"/>
  <rect x="40" y="28" width="4" height="4" fill="#102010"/>

  <!-- Lower rim -->
  <rect x="16" y="32" width="4" height="4" fill="#406040"/>
  <rect x="20" y="32" width="4" height="4" fill="#507050"/>
  <rect x="40" y="32" width="4" height="4" fill="#406040"/>
  <rect x="44" y="32" width="4" height="4" fill="#305030"/>

  <rect x="16" y="36" width="32" height="4" fill="#406040"/>
</svg>
