<svg xmlns="http://www.w3.org/2000/svg" viewBox="0 0 64 64" width="64" height="64">
  <!-- Pixel Art: Drachenschuppen-Beinschutz (Epic/Purple) -->
  <!-- Scale belt -->
  <rect x="16" y="4" width="32" height="4" fill="#4a3a5a"/>
  <rect x="28" y="4" width="8" height="4" fill="#a335ee"/>
  <!-- Scale pattern main -->
  <rect x="16" y="8" width="32" height="8" fill="#5a4a6a"/>
  <!-- Left leg scales -->
  <rect x="16" y="16" width="12" height="4" fill="#6a5a7a"/>
  <rect x="16" y="20" width="12" height="4" fill="#5a4a6a"/>
  <rect x="16" y="24" width="12" height="4" fill="#7a6a8a"/>
  <rect x="16" y="28" width="12" height="4" fill="#5a4a6a"/>
  <rect x="16" y="32" width="12" height="4" fill="#6a5a7a"/>
  <rect x="16" y="36" width="12" height="8" fill="#4a3a5a"/>
  <!-- Right leg scales -->
  <rect x="36" y="16" width="12" height="4" fill="#5a4a6a"/>
  <rect x="36" y="20" width="12" height="4" fill="#6a5a7a"/>
  <rect x="36" y="24" width="12" height="4" fill="#5a4a6a"/>
  <rect x="36" y="28" width="12" height="4" fill="#7a6a8a"/>
  <rect x="36" y="32" width="12" height="4" fill="#5a4a6a"/>
  <rect x="36" y="36" width="12" height="8" fill="#4a3a5a"/>
  <!-- Dragon scale shimmer -->
  <rect x="20" y="20" width="4" height="4" fill="#8a7a9a"/>
  <rect x="40" y="28" width="4" height="4" fill="#8a7a9a"/>
</svg>
