<svg xmlns="http://www.w3.org/2000/svg" viewBox="0 0 64 64" width="64" height="64">
  <!-- Pixel Art: Mithril-Beinschienen (Epic/Purple) -->
  <!-- Mithril belt -->
  <rect x="16" y="4" width="32" height="4" fill="#b0b8d0"/>
  <rect x="28" y="4" width="8" height="4" fill="#a080d0"/>
  <!-- Main body mithril -->
  <rect x="16" y="8" width="32" height="8" fill="#c0c8e0"/>
  <!-- Left leg mithril -->
  <rect x="16" y="16" width="12" height="4" fill="#d0d8f0"/>
  <rect x="16" y="20" width="12" height="4" fill="#c0c8e0"/>
  <rect x="16" y="24" width="12" height="4" fill="#d0d8f0"/>
  <rect x="16" y="28" width="12" height="4" fill="#c0c8e0"/>
  <rect x="16" y="32" width="12" height="4" fill="#d0d8f0"/>
  <rect x="16" y="36" width="12" height="8" fill="#b0b8d0"/>
  <!-- Right leg mithril -->
  <rect x="36" y="16" width="12" height="4" fill="#c0c8e0"/>
  <rect x="36" y="20" width="12" height="4" fill="#d0d8f0"/>
  <rect x="36" y="24" width="12" height="4" fill="#c0c8e0"/>
  <rect x="36" y="28" width="12" height="4" fill="#d0d8f0"/>
  <rect x="36" y="32" width="12" height="4" fill="#c0c8e0"/>
  <rect x="36" y="36" width="12" height="8" fill="#b0b8d0"/>
  <!-- Purple shimmer -->
  <rect x="20" y="20" width="4" height="4" fill="#9070c0"/>
  <rect x="40" y="28" width="4" height="4" fill="#9070c0"/>
</svg>
