<svg xmlns="http://www.w3.org/2000/svg" viewBox="0 0 64 64" width="64" height="64">
  <!-- Pixel Art: Schuluniform des Wanderers (Rare/Blue) -->

  <!-- Reinforced shoulder pads -->
  <rect x="4" y="8" width="12" height="4" fill="#1a3a6a"/>
  <rect x="48" y="8" width="12" height="4" fill="#0a2a5a"/>

  <!-- Main leather vest body -->
  <rect x="12" y="12" width="4" height="4" fill="#2a4a7a"/>
  <rect x="16" y="12" width="4" height="4" fill="#3a5a8a"/>
  <rect x="20" y="12" width="4" height="4" fill="#2a4a7a"/>
  <rect x="24" y="12" width="4" height="4" fill="#3a5a8a"/>
  <rect x="28" y="12" width="4" height="4" fill="#4a6a9a"/>
  <rect x="32" y="12" width="4" height="4" fill="#3a5a8a"/>
  <rect x="36" y="12" width="4" height="4" fill="#2a4a7a"/>
  <rect x="40" y="12" width="4" height="4" fill="#3a5a8a"/>
  <rect x="44" y="12" width="4" height="4" fill="#2a4a7a"/>
  <rect x="48" y="12" width="4" height="4" fill="#1a3a6a"/>

  <rect x="12" y="16" width="4" height="4" fill="#3a5a8a"/>
  <rect x="16" y="16" width="4" height="4" fill="#4a6a9a"/>
  <rect x="20" y="16" width="4" height="4" fill="#3a5a8a"/>
  <rect x="24" y="16" width="4" height="4" fill="#4a6a9a"/>
  <rect x="28" y="16" width="4" height="4" fill="#5a7aaa"/>
  <rect x="32" y="16" width="4" height="4" fill="#4a6a9a"/>
  <rect x="36" y="16" width="4" height="4" fill="#3a5a8a"/>
  <rect x="40" y="16" width="4" height="4" fill="#4a6a9a"/>
  <rect x="44" y="16" width="4" height="4" fill="#3a5a8a"/>
  <rect x="48" y="16" width="4" height="4" fill="#2a4a7a"/>

  <rect x="12" y="20" width="4" height="4" fill="#2a4a7a"/>
  <rect x="16" y="20" width="4" height="4" fill="#3a5a8a"/>
  <rect x="20" y="20" width="4" height="4" fill="#4a6a9a"/>
  <rect x="24" y="20" width="4" height="4" fill="#3a5a8a"/>
  <rect x="28" y="20" width="4" height="4" fill="#4a6a9a"/>
  <rect x="32" y="20" width="4" height="4" fill="#3a5a8a"/>
  <rect x="36" y="20" width="4" height="4" fill="#4a6a9a"/>
  <rect x="40" y="20" width="4" height="4" fill="#3a5a8a"/>
  <rect x="44" y="20" width="4" height="4" fill="#2a4a7a"/>
  <rect x="48" y="20" width="4" height="4" fill="#1a3a6a"/>

  <rect x="12" y="24" width="4" height="4" fill="#1a3a6a"/>
  <rect x="16" y="24" width="4" height="4" fill="#2a4a7a"/>
  <rect x="20" y="24" width="4" height="4" fill="#3a5a8a"/>
  <rect x="24" y="24" width="4" height="4" fill="#2a4a7a"/>
  <rect x="28" y="24" width="4" height="4" fill="#3a5a8a"/>
  <rect x="32" y="24" width="4" height="4" fill="#2a4a7a"/>
  <rect x="36" y="24" width="4" height="4" fill="#3a5a8a"/>
  <rect x="40" y="24" width="4" height="4" fill="#2a4a7a"/>
  <rect x="44" y="24" width="4" height="4" fill="#1a3a6a"/>
  <rect x="48" y="24" width="4" height="4" fill="#0a2a5a"/>

  <!-- Gold trim belt -->
  <rect x="12" y="28" width="40" height="4" fill="#ffd700"/>

  <!-- Gold buckle -->
  <rect x="28" y="28" width="8" height="4" fill="#ffee00"/>
</svg>
